<?xml version="1.0" standalone="no"?>
<!DOCTYPE svg PUBLIC "-//W3C//DTD SVG 20010904//EN"
 "http://www.w3.org/TR/2001/REC-SVG-20010904/DTD/svg10.dtd">
<svg version="1.0" xmlns="http://www.w3.org/2000/svg"
 width="1024.000000pt" height="1024.000000pt" viewBox="0 0 1024.000000 1024.000000"
 preserveAspectRatio="xMidYMid meet">
<metadata>
Created by potrace 1.14, written by Peter Selinger 2001-2017
</metadata>
<g transform="translate(0.000000,1024.000000) scale(0.100000,-0.100000)"
fill="#000000" stroke="none">
<path d="M5146 9335 c-5 -27 -25 -156 -47 -285 -21 -129 -56 -345 -78 -480
-22 -135 -48 -302 -57 -372 -9 -71 -20 -128 -23 -128 -7 0 -41 145 -41 174 0
40 -11 6 -25 -80 -21 -128 -35 -355 -35 -566 0 -134 -3 -187 -12 -197 -10 -9
-12 -86 -10 -332 3 -320 -4 -388 -27 -251 -48 285 -81 429 -81 353 0 -12 -20
-113 -44 -224 -24 -111 -47 -217 -51 -235 -6 -30 -10 -33 -34 -30 -296 50
-358 63 -373 77 -9 9 -40 60 -68 114 -47 88 -51 101 -41 124 10 21 9 29 -5 44
-20 22 -45 24 -62 7 -15 -15 -16 -50 -1 -65 11 -11 -12 -76 -114 -315 -49
-117 -67 -143 -67 -98 0 10 -7 24 -16 31 -14 11 -19 9 -35 -11 -18 -22 -20
-37 -16 -117 4 -81 2 -96 -17 -125 -20 -32 -21 -45 -24 -488 -2 -250 -7 -459
-11 -463 -20 -20 -23 115 -16 792 7 713 7 716 29 739 20 23 21 31 18 204 -2
100 -8 188 -14 197 -8 13 -3 27 20 61 65 98 66 103 58 604 -11 655 -18 791
-44 843 -28 54 -76 100 -132 126 -119 55 -281 2 -326 -106 -14 -34 -28 -48
-58 -63 -29 -14 -47 -32 -63 -64 -23 -44 -23 -45 -23 -535 1 -418 3 -496 16
-530 9 -22 20 -65 24 -95 10 -69 19 -92 63 -157 l35 -51 -19 -29 c-17 -25 -19
-49 -19 -203 0 -141 3 -180 15 -197 13 -19 15 -81 13 -445 l-3 -423 -37 75
c-21 41 -92 201 -159 355 -67 154 -127 292 -135 307 l-14 27 -55 -19 -55 -19
-15 29 c-8 16 -22 33 -32 38 -11 7 -17 25 -18 63 -3 82 -59 219 -227 558 -83
168 -149 314 -148 325 7 76 1 124 -18 162 -41 80 -102 111 -200 102 -59 -6
-367 -140 -418 -181 -63 -53 -80 -127 -48 -220 14 -42 30 -62 100 -128 20 -18
153 -295 309 -642 72 -162 102 -217 116 -217 5 0 9 -22 9 -48 0 -26 5 -53 11
-59 13 -13 19 -10 -131 -73 -365 -153 -506 -213 -515 -221 -10 -10 48 -160
205 -529 80 -189 138 -327 390 -934 49 -120 93 -230 96 -242 6 -23 4 -24 -48
-24 -69 0 -98 -26 -106 -97 -2 -26 -12 -59 -22 -73 -27 -40 -32 -87 -13 -127
23 -49 66 -73 131 -73 43 0 60 -5 90 -28 20 -16 54 -41 75 -56 20 -15 37 -30
37 -34 0 -4 -45 -17 -100 -30 l-101 -24 7 -84 c4 -53 3 -84 -3 -84 -19 0 -547
-91 -551 -95 -4 -4 98 -133 271 -344 l86 -104 -19 -46 c-155 -383 -196 -496
-184 -499 7 -2 134 13 281 33 309 42 599 75 655 75 43 0 51 -15 14 -24 -33 -8
-41 -38 -21 -78 18 -37 77 -86 112 -93 13 -3 34 -7 48 -10 20 -4 35 -26 74
-103 156 -312 450 -629 782 -846 330 -214 737 -354 1154 -397 167 -17 485 -7
638 20 422 74 810 241 1140 490 263 198 538 526 638 760 26 61 30 65 71 76
126 32 198 133 131 184 l-28 20 50 0 c60 0 262 -23 647 -75 158 -21 290 -36
292 -33 3 3 -29 93 -72 200 -43 107 -91 229 -106 271 -33 90 -48 57 113 249
131 156 215 268 208 275 -6 6 -285 53 -447 76 l-95 13 -1 85 0 85 -40 13 c-58
20 -186 44 -206 38 -21 -5 -25 19 -5 31 42 28 180 76 225 79 65 4 106 31 122
79 14 43 1 92 -35 125 -17 16 -25 34 -25 57 0 19 -7 47 -15 62 -15 30 -68 61
-104 61 -12 0 -21 3 -21 6 0 3 20 65 45 137 24 73 121 371 214 662 94 292 185
575 203 630 l33 100 45 0 44 0 22 110 c34 161 34 160 -26 180 -27 9 -50 22
-50 28 0 7 12 50 25 96 14 47 25 90 25 96 0 47 -1037 369 -1368 426 -138 23
-180 24 -231 3 -51 -20 -69 -48 -102 -159 l-27 -90 -57 0 -58 0 -17 -90 c-33
-175 -34 -165 6 -181 18 -8 34 -21 34 -30 0 -17 -68 -416 -77 -453 -5 -22 -8
-18 -19 25 -10 37 -13 188 -14 638 l0 588 25 30 c23 27 25 38 25 123 0 103 -1
105 -81 105 -20 0 -50 3 -67 6 -29 6 -31 9 -37 68 -12 121 -46 361 -55 386 -8
23 -8 22 -9 -12 -1 -20 -7 -67 -15 -105 -8 -37 -17 -97 -21 -132 -9 -77 -20
-64 -29 34 -3 39 -15 142 -25 230 -11 88 -31 264 -46 390 -14 127 -35 295 -45
375 -26 190 -26 190 5 190 14 0 42 8 63 17 l37 17 -55 4 c-32 2 -62 10 -72 19
-17 15 -18 13 -18 -28 0 -46 -11 -117 -84 -554 -25 -148 -59 -367 -77 -485
-17 -118 -32 -216 -33 -218 -4 -4 -46 222 -46 246 0 12 -4 23 -8 26 -6 4 -73
-421 -72 -456 0 -10 -53 -19 -161 -26 l-94 -7 -3 -94 c-3 -86 -1 -96 20 -118
21 -23 22 -30 20 -176 -4 -296 -15 -682 -19 -690 -5 -8 -44 11 -55 27 -4 6 -8
57 -8 112 0 111 -3 129 -55 354 -20 85 -39 172 -42 193 -7 43 -23 50 -23 10 0
-45 -41 -317 -49 -326 -5 -4 -11 38 -15 94 -5 83 -3 111 10 145 14 36 15 61 8
151 -8 98 -9 103 -14 53 -12 -123 -20 -14 -25 346 -6 356 -24 624 -45 647 -4
4 -10 -18 -14 -50 -4 -32 -12 -76 -18 -98 -11 -39 -11 -37 -29 85 -10 69 -40
253 -65 410 -26 157 -63 400 -84 540 -33 228 -38 250 -44 205z m-25 -634 c-6
-102 -14 -341 -17 -531 -3 -190 -9 -372 -13 -405 l-7 -60 -8 45 c-5 25 -17 63
-28 85 l-19 40 6 -135 c5 -147 7 -236 6 -404 -1 -95 -3 -107 -16 -96 -13 11
-15 60 -16 324 -1 171 -5 325 -9 341 l-7 30 -11 -28 c-7 -16 -12 -34 -12 -42
0 -8 -5 -17 -12 -21 -7 -5 -9 -2 -6 7 21 55 76 384 146 872 15 103 29 182 31
176 2 -6 -2 -95 -8 -198z m-1536 184 c19 -8 39 -24 44 -37 13 -35 25 -1078 13
-1078 -6 0 -13 -8 -15 -17 -4 -15 -6 -15 -12 5 -6 17 -14 22 -39 21 -31 -2
-31 -2 -3 -6 26 -4 34 -29 9 -27 -7 1 -27 2 -44 3 -28 2 -30 4 -13 11 20 9 20
9 0 9 -11 1 -28 -8 -37 -19 -17 -19 -16 -19 17 -26 19 -3 41 -4 47 -1 7 2 19
-2 26 -9 11 -12 7 -14 -25 -15 -29 0 -33 -2 -18 -8 11 -5 26 -6 33 -4 6 3 12
0 12 -7 0 -8 -10 -11 -29 -7 -35 7 -73 -2 -68 -16 3 -11 17 -13 99 -18 30 -2
45 -6 40 -13 -3 -6 -7 -15 -8 -21 -1 -5 -5 -19 -9 -30 -6 -17 -4 -17 14 4 25
27 30 6 6 -25 -15 -19 -15 -19 -30 0 -13 17 -15 18 -15 3 0 -9 -8 -17 -17 -17
-9 0 -13 -3 -9 -7 9 -9 -90 -41 -129 -42 -17 -1 -45 3 -63 8 -31 9 -31 9 -21
-12 9 -19 7 -18 -10 3 -22 28 -43 98 -31 105 4 2 18 -7 30 -20 23 -24 63 -32
86 -17 27 18 47 92 24 92 -5 0 -20 -11 -34 -25 -15 -15 -31 -22 -40 -19 -22 8
-20 26 5 58 19 25 21 36 15 114 -3 48 -7 296 -8 552 -2 526 -4 510 74 549 50
25 86 26 133 6z m-265 -184 c0 -11 -5 -21 -11 -23 -13 -4 -14 -711 -3 -885 l7
-93 -26 0 c-13 0 -28 7 -31 16 -3 9 -6 198 -6 420 0 316 3 404 13 405 10 0 10
2 0 6 -19 7 -17 123 3 151 19 28 54 30 54 3z m2930 -436 c-6 -104 -16 -220
-21 -256 -6 -43 -5 -86 2 -123 5 -31 9 -76 7 -99 -3 -36 -7 -43 -28 -46 l-25
-4 25 -8 c24 -7 24 -7 3 -8 -18 -1 -23 -7 -23 -26 0 -21 -5 -25 -30 -25 -23 0
-30 5 -30 19 0 29 16 145 65 466 24 160 48 322 52 360 l8 70 4 -65 c1 -36 -2
-150 -9 -255z m-1329 -335 c30 -115 34 -180 15 -237 -13 -37 -16 -91 -16 -255
0 -140 -4 -214 -12 -227 -6 -10 -8 -26 -5 -35 10 -26 40 -15 51 19 6 17 11 32
13 34 1 2 27 -23 58 -55 45 -48 57 -56 65 -44 6 9 10 120 9 277 -1 240 0 265
17 294 31 53 45 46 24 -12 -17 -45 -20 -84 -21 -303 -2 -282 -8 -376 -20 -336
-6 21 -7 18 -7 -15 0 -22 3 -60 7 -85 l8 -45 2 40 c2 53 21 27 21 -29 0 -31
-3 -37 -16 -32 -9 3 -19 6 -24 6 -4 0 -11 34 -15 75 -8 84 -48 178 -78 183
-24 5 -65 -33 -83 -75 -8 -18 -14 -56 -13 -85 0 -29 3 -46 6 -38 10 27 74 130
81 130 4 0 16 -21 27 -47 11 -26 22 -51 23 -55 2 -4 -3 -8 -12 -8 -14 0 -16
-19 -16 -145 0 -90 -4 -145 -10 -145 -6 0 -11 50 -12 128 -2 135 -2 137 8 193
12 75 -19 49 -84 -68 -7 -14 -12 -66 -12 -138 0 -79 -4 -115 -11 -115 -9 0 -9
108 -3 418 10 517 10 474 2 557 -4 39 -4 61 1 51 9 -24 17 -13 31 47 8 37 6
62 -9 129 -21 91 -37 216 -21 163 5 -16 19 -68 31 -115z m460 30 c-7 -46 -9
-49 -10 -19 -1 42 12 112 16 89 2 -8 -1 -40 -6 -70z m-3080 1 c16 -16 29 -38
29 -48 0 -19 -56 -60 -67 -49 -4 3 0 6 7 6 7 0 11 2 8 5 -9 9 -38 -7 -32 -17
4 -6 -2 -6 -14 1 -15 8 -33 5 -83 -15 -139 -57 -267 -124 -292 -154 -33 -38
-44 -38 -63 4 -22 45 -12 95 25 130 16 16 100 59 188 97 128 55 168 68 211 69
46 0 58 -4 83 -29z m2964 -95 c-8 -52 -15 -126 -16 -163 -1 -51 -3 -62 -10
-43 -6 18 -7 5 -6 -42 2 -38 -1 -68 -5 -68 -19 0 -1 222 29 361 23 108 28 80
8 -45z m770 -229 c7 -86 7 -87 -15 -87 -22 0 -23 2 -17 68 4 37 7 85 8 107 1
66 16 12 24 -88z m-3739 -14 c70 -147 90 -191 148 -325 69 -160 78 -188 64
-205 -9 -11 -7 -15 10 -20 12 -3 22 -12 22 -20 0 -7 10 -33 22 -56 11 -23 27
-64 34 -92 12 -45 12 -51 -3 -62 -26 -19 -38 -16 -50 15 l-11 27 -1 -37 c-1
-35 -3 -37 -69 -62 -38 -15 -75 -24 -83 -21 -20 8 -73 90 -110 172 -17 37 -51
109 -74 158 -23 50 -53 113 -65 140 -12 28 -46 100 -76 162 -30 62 -54 119
-54 126 0 7 11 19 24 27 15 8 22 18 19 27 -5 12 -1 14 18 9 20 -6 21 -5 6 4
-9 6 -14 16 -11 22 5 7 1 9 -9 5 -11 -4 -14 -2 -10 9 3 7 -1 14 -8 14 -7 0
-10 3 -7 6 7 6 199 92 210 93 4 1 33 -52 64 -116z m3852 -13 c-4 -67 -22 -69
-26 -2 -2 42 0 52 13 52 13 0 15 -10 13 -50z m49 -32 c-3 -8 -6 -5 -6 6 -1 11
2 17 5 13 3 -3 4 -12 1 -19z m-2597 -58 c0 -5 -3 -10 -7 -10 -5 0 -19 -3 -33
-6 l-25 -6 25 15 c31 18 40 20 40 7z m1632 -168 c2 -61 0 -112 -4 -112 -5 0
-7 66 -6 148 1 159 6 144 10 -36z m973 159 c36 -8 32 -12 -15 -15 -10 -1 -16
-14 -18 -43 -3 -35 -7 -43 -23 -43 -16 0 -19 7 -19 55 0 61 0 61 75 46z m-151
-17 c10 -25 7 -94 -4 -94 -5 0 -10 18 -10 40 0 22 -4 40 -9 40 -12 0 -25 -56
-16 -70 3 -5 -1 -10 -9 -10 -13 0 -16 12 -16 55 0 54 1 55 29 55 17 0 31 -6
35 -16z m-144 -19 c0 -14 -5 -25 -11 -25 -7 0 -9 -11 -6 -28 5 -23 2 -28 -14
-29 -17 -2 -19 5 -19 53 0 51 1 54 25 54 20 0 25 -5 25 -25z m418 0 c-3 -3 -9
2 -12 12 -6 14 -5 15 5 6 7 -7 10 -15 7 -18z m32 15 c0 -5 -2 -10 -4 -10 -3 0
-8 5 -11 10 -3 6 -1 10 4 10 6 0 11 -4 11 -10z m161 -28 c-3 -19 -6 -22 -9 -9
-2 10 -13 17 -28 17 -13 0 -24 4 -24 9 0 13 20 18 46 13 17 -3 20 -9 15 -30z
m-741 9 c0 -10 -7 -21 -15 -25 -22 -8 -20 -48 3 -44 12 2 19 16 22 43 5 36 6
37 13 15 13 -45 9 -70 -12 -70 -11 0 -26 -3 -35 -6 -13 -5 -16 3 -16 50 0 49
2 56 20 56 13 0 20 -7 20 -19z m899 -23 c-1 -24 -3 -34 -6 -23 -9 43 -11 45
-38 35 -21 -8 -25 -7 -25 10 0 16 7 20 35 20 35 0 35 0 34 -42z m-3119 -6 c0
-5 -37 -14 -81 -21 -67 -10 -83 -10 -90 1 -7 10 5 14 49 19 93 9 122 9 122 1z
m2367 -34 c-3 -8 -6 -5 -6 6 -1 11 2 17 5 13 3 -3 4 -12 1 -19z m-2387 -68 c0
-5 6 -7 14 -4 11 4 14 -3 13 -31 -2 -37 -1 -38 53 -55 l55 -19 -60 2 c-55 2
-60 0 -57 -18 5 -26 2 -25 61 -32 71 -8 74 -22 4 -20 -46 2 -58 -1 -61 -15 -3
-16 25 -29 88 -42 14 -3 4 -3 -22 -2 -57 4 -80 -7 -49 -23 12 -7 18 -17 15
-23 -4 -6 -3 -8 4 -4 6 3 13 2 17 -4 4 -6 -18 -10 -62 -10 -38 0 -95 -7 -127
-15 -32 -8 -61 -13 -65 -10 -21 13 -6 284 17 307 17 17 162 34 162 18z m2600
-180 c-1 -98 -6 -172 -11 -176 -6 -4 -6 -11 1 -19 17 -21 19 -1225 2 -1225
-31 0 -72 31 -72 54 0 29 -24 40 -44 20 -13 -12 -22 -13 -55 -3 l-38 11 -5 70
c-6 77 -11 87 -36 71 -12 -7 -17 -24 -17 -62 0 -28 -4 -51 -9 -51 -28 0 -85
25 -89 39 -2 9 -2 125 1 259 l5 242 33 0 c44 0 44 17 0 26 -25 4 -36 12 -38
28 -2 11 1 153 6 314 l9 292 29 0 c26 0 28 -3 22 -22 -5 -13 -8 -36 -9 -53 0
-25 4 -30 23 -28 12 2 22 -2 22 -7 0 -6 -4 -10 -9 -10 -12 0 -41 -29 -41 -41
0 -5 29 -9 65 -9 l65 0 0 79 c0 74 1 79 20 74 15 -4 20 -14 20 -41 0 -21 7
-40 18 -48 16 -13 16 -13 0 -14 -10 0 -18 -2 -18 -4 0 -2 -3 -11 -6 -20 -5
-14 4 -16 60 -16 59 0 66 2 66 20 0 11 -3 20 -7 20 -5 0 -7 60 -5 132 3 154
-5 181 -55 186 -26 3 -33 -2 -47 -29 -20 -39 -22 -149 -3 -149 8 0 7 -3 -3
-10 -24 -15 -37 7 -42 75 -9 106 -53 146 -97 89 -16 -20 -21 -41 -21 -84 0
-56 -8 -70 -41 -70 -5 0 -9 53 -9 119 l0 119 133 9 c72 6 153 11 180 11 l48 2
-1 -170z m366 7 c30 -28 37 -42 41 -83 7 -70 -15 -119 -63 -139 -51 -21 -85
-19 -125 8 -67 45 -77 155 -19 217 24 26 35 30 79 30 44 0 56 -5 87 -33z
m-484 -59 c-4 -126 -9 -135 -11 -20 0 56 2 102 7 102 4 0 6 -37 4 -82z m-146
56 c-3 -9 -6 -52 -6 -97 0 -49 -4 -77 -9 -71 -12 12 -1 184 11 184 6 0 7 -7 4
-16z m-409 -26 c-3 -8 -6 -5 -6 6 -1 11 2 17 5 13 3 -3 4 -12 1 -19z m-223
-258 c-2 -41 -7 -144 -10 -227 -4 -84 -11 -153 -15 -153 -34 0 -39 13 -39 95
0 73 2 84 19 90 21 6 36 55 17 55 -7 0 -17 -5 -24 -12 -16 -16 -16 -17 15 177
28 168 28 169 35 110 4 -33 5 -94 2 -135z m-539 -187 c-6 -83 -9 -93 -26 -93
-16 0 -19 7 -19 48 0 49 25 236 37 287 11 43 16 -124 8 -242z m2486 226 c29
-41 146 -96 220 -105 42 -5 72 -2 114 11 56 18 58 18 153 -5 113 -27 366 -102
437 -129 28 -11 59 -22 69 -26 10 -3 17 -8 14 -10 -2 -3 -45 7 -94 21 -49 14
-183 48 -298 75 -203 47 -212 49 -325 43 -109 -5 -121 -3 -200 24 l-83 29 -19
-31 c-10 -17 -22 -46 -25 -64 -6 -28 -10 -33 -28 -28 -12 3 -47 8 -78 12 l-57
7 5 31 c13 70 36 138 54 156 15 15 34 20 69 20 44 0 52 -3 72 -31z m187 4
c104 -28 137 -51 57 -40 -78 11 -224 67 -174 67 7 0 60 -12 117 -27z m-3865
-30 c3 -27 6 -421 6 -878 0 -939 10 -863 -83 -660 l-51 110 -2 323 c-3 319 -3
323 17 317 11 -3 20 -2 20 3 0 5 -10 12 -21 15 l-22 6 7 383 c8 410 8 411 60
421 59 12 63 10 69 -40z m592 -75 c36 -74 33 -75 -10 -3 -18 29 -24 35 -25 20
0 -11 52 -124 116 -252 l116 -232 -14 -38 c-12 -30 -16 -96 -17 -303 -2 -258
-5 -279 -33 -280 -5 0 -8 51 -8 113 -1 139 -12 230 -36 282 l-18 40 -3 -30
c-2 -16 -8 -39 -13 -50 -5 -11 -11 -93 -12 -183 -3 -146 -1 -162 14 -162 23 0
48 -11 48 -21 0 -15 -91 -49 -116 -43 -14 4 -57 3 -98 -1 l-73 -6 5 -53 c4
-52 -9 -96 -28 -96 -12 0 -12 271 -1 435 6 96 11 116 35 153 l27 44 31 -48
c28 -45 31 -47 44 -29 8 10 14 23 14 28 0 4 4 6 9 2 6 -3 4 -22 -5 -47 -7 -22
-14 -70 -14 -107 0 -95 -11 -201 -21 -201 -5 0 -9 68 -9 152 0 142 -1 153 -22
175 -50 54 -59 30 -67 -175 l-6 -162 105 0 105 0 -3 153 c-4 157 -16 211 -52
227 -40 18 -54 28 -67 46 -12 18 -11 23 7 39 16 14 19 15 15 4 -3 -9 3 -27 15
-40 20 -24 20 -24 35 -5 8 11 15 28 15 38 0 10 4 18 9 18 20 0 19 -17 0 -49
l-20 -32 33 -31 32 -30 9 24 c4 12 6 30 4 40 -3 9 0 19 6 21 6 2 -5 26 -27 55
-21 29 -34 52 -29 52 13 0 68 -59 92 -100 11 -19 21 -28 21 -20 0 17 -40 80
-74 119 -32 36 -93 71 -123 71 -37 0 -131 -99 -170 -177 l-28 -58 -5 -324 c-4
-260 -8 -325 -18 -329 -12 -4 -13 64 -10 399 5 451 -1 408 87 599 51 108 148
336 172 403 7 20 14 37 16 37 1 0 19 -33 38 -72z m995 -39 c0 -53 -4 -89 -10
-89 -6 0 -10 39 -10 96 0 61 4 93 10 89 6 -3 10 -46 10 -96z m-1533 -61 c-2
-18 -4 -4 -4 32 0 36 2 50 4 33 2 -18 2 -48 0 -65z m-934 52 c-10 -37 -126
-102 -154 -84 -4 2 -11 -1 -14 -7 -4 -5 -13 -8 -20 -5 -8 3 -15 1 -17 -3 -2
-4 -16 -11 -32 -15 -26 -6 -28 -5 -17 8 16 19 203 110 258 126 0 0 -1 -9 -4
-20z m277 -49 c0 -20 -58 -49 -190 -96 -85 -30 -76 -27 -232 -94 -69 -31 -124
-49 -135 -45 -13 4 -14 3 -5 -3 16 -12 -62 -45 -85 -36 -11 4 -14 2 -9 -5 4
-7 1 -13 -6 -13 -27 -3 -34 -4 -68 -18 -78 -32 -97 -75 -63 -146 20 -42 17
-46 -59 -73 l-56 -21 -22 54 c-24 59 -37 66 -64 36 -17 -19 -17 -22 6 -73 31
-68 52 -88 89 -88 17 0 97 28 180 62 142 59 149 64 149 91 0 15 -7 44 -15 63
-17 42 -15 49 22 59 34 8 151 53 407 156 156 63 201 78 207 67 5 -7 27 -58 50
-113 23 -55 90 -210 149 -345 124 -283 129 -300 100 -300 -15 0 -26 11 -36 38
-9 20 -35 80 -60 133 -24 52 -44 105 -44 117 0 32 -20 36 -74 12 -26 -11 -56
-20 -67 -20 -29 0 -24 -23 30 -156 27 -65 47 -122 44 -127 -6 -10 -43 11 -43
25 0 6 -12 36 -26 68 l-26 58 -54 -32 c-29 -17 -52 -35 -50 -41 1 -5 23 -9 48
-7 43 3 46 2 56 -26 13 -38 9 -42 -43 -42 l-41 0 -36 77 -37 76 52 19 c29 11
60 22 70 25 21 7 22 17 3 35 -7 8 -25 41 -38 74 -60 145 -84 194 -95 194 -17
0 -155 -62 -149 -67 2 -3 32 3 67 11 34 9 63 15 64 14 7 -9 41 -81 70 -148
l33 -78 -48 -16 c-27 -9 -56 -16 -64 -16 -9 0 -25 -9 -36 -20 -12 -12 -33 -20
-55 -20 -23 0 -35 -5 -35 -14 0 -8 -38 -30 -87 -51 -176 -75 -355 -159 -346
-162 6 -2 79 23 164 55 85 33 177 67 204 77 28 10 55 22 62 27 8 7 18 -5 32
-38 12 -25 21 -48 21 -49 0 -1 -33 -5 -72 -9 -85 -8 -543 -118 -607 -147 -24
-10 -45 -18 -46 -17 -5 6 -93 215 -99 234 -6 19 -1 24 36 37 57 19 280 118
293 129 29 25 -102 -14 -258 -79 -52 -21 -91 -32 -96 -27 -11 12 -124 284
-120 287 61 38 1134 485 1167 486 15 1 22 -5 22 -18z m4140 -52 c219 -43 371
-75 567 -120 98 -22 229 -51 292 -65 123 -27 239 -62 206 -63 -47 -1 -201 29
-560 109 -139 31 -496 99 -632 121 -76 12 -83 15 -83 36 0 26 -20 28 210 -18z
m-1927 -116 c-3 -54 -11 -101 -16 -105 -7 -4 -8 -91 -4 -252 6 -213 4 -246 -8
-246 -12 0 -15 15 -15 70 l0 70 -30 0 -30 0 0 -75 c0 -73 -1 -75 -25 -75 -24
0 -25 2 -25 75 l0 75 -30 0 -30 0 0 -79 c0 -76 -1 -79 -25 -83 l-25 -5 0 83
c0 77 -2 84 -20 84 -17 0 -19 -8 -22 -87 -3 -74 -6 -88 -20 -91 -17 -3 -18 19
-18 362 l0 365 83 4 c45 1 124 4 174 5 l92 2 -6 -97z m1751 47 c10 0 17 -3 13
-6 -10 -10 -57 5 -57 18 0 9 3 9 12 0 7 -7 21 -12 32 -12z m-2174 -125 c0 -88
-1 -95 -20 -95 -19 0 -20 7 -20 95 0 88 1 95 20 95 19 0 20 -7 20 -95z m-1120
34 c0 -5 -4 -9 -10 -9 -5 0 -10 7 -10 16 0 8 5 12 10 9 6 -3 10 -10 10 -16z
m851 -81 c10 -68 10 -81 -6 -114 -9 -20 -15 -44 -12 -55 3 -10 1 -17 -3 -14
-5 3 -10 -5 -12 -17 -2 -13 -11 -24 -20 -26 -16 -3 -18 5 -18 60 0 58 52 295
56 258 2 -8 8 -50 15 -92z m794 -8 c0 -60 -2 -65 -22 -68 -22 -3 -23 0 -23 68
0 68 1 71 23 68 20 -3 22 -8 22 -68z m1743 44 c19 -4 29 -11 26 -19 -7 -17 25
-28 43 -14 15 13 83 0 278 -53 208 -57 548 -177 500 -177 -24 0 -107 26 -113
36 -4 5 -20 13 -37 17 -16 4 -38 9 -49 13 -11 3 -16 1 -12 -5 4 -7 -4 -8 -26
-1 -18 5 -40 9 -48 9 -13 0 -13 -1 0 -10 8 -5 10 -10 4 -10 -18 0 -24 12 -14
30 9 16 6 17 -28 9 -50 -12 -52 -11 -52 6 0 8 -8 15 -17 16 -27 1 -131 38
-109 38 11 1 17 4 13 7 -8 8 -48 -6 -42 -15 2 -5 -20 -1 -49 7 -51 14 -54 14
-75 -7 -19 -19 -19 -21 -3 -23 100 -8 148 -38 62 -38 -21 0 -41 -4 -45 -10 -6
-9 -122 -6 -133 4 -3 3 13 7 36 7 55 2 59 3 69 13 4 5 -5 6 -22 4 -16 -3 -24
-3 -17 -1 45 15 -30 23 -93 10 -11 -2 -14 -2 -7 0 6 3 12 14 11 26 0 21 -1 21
-9 2 -7 -15 -9 -10 -9 25 1 83 -4 72 -26 -51 l-6 -36 78 -15 c234 -46 365 -73
518 -109 178 -42 490 -143 585 -189 30 -15 83 -40 118 -55 34 -15 62 -32 62
-36 0 -16 -207 -674 -307 -976 l-97 -292 -41 6 c-62 8 -125 -13 -166 -57 -24
-25 -50 -41 -74 -46 -55 -10 -82 -40 -111 -124 -35 -102 -39 -132 -21 -167 24
-45 42 -56 120 -67 65 -10 73 -14 94 -45 28 -41 23 -52 -20 -40 -17 4 -106 22
-197 39 -222 41 -210 37 -210 61 0 80 -79 356 -146 509 -81 185 -208 379 -375
572 l-46 53 28 195 c27 179 75 492 132 843 13 83 26 137 33 137 6 0 25 -3 42
-6z m-3390 -169 c2 -80 0 -145 -5 -145 -4 0 -9 65 -11 145 -1 80 1 145 5 145
5 0 10 -65 11 -145z m2122 60 c15 -18 9 -417 -6 -422 -7 -2 -13 34 -17 109 -3
65 -10 114 -16 116 -7 2 -11 45 -11 112 0 103 1 108 20 103 10 -3 24 -11 30
-18z m-3442 -52 c3 -19 -29 -53 -49 -53 -10 0 -30 61 -23 72 3 5 20 8 37 6 24
-2 33 -9 35 -25z m2433 -10 l1 -38 12 29 13 28 7 -32 c3 -18 4 -35 2 -38 -3
-2 -21 -1 -41 2 -33 7 -35 9 -35 46 0 33 3 40 20 40 16 0 20 -7 21 -37z m2572
30 c-7 -2 -21 -2 -30 0 -10 3 -4 5 12 5 17 0 24 -2 18 -5z m-2041 -38 c3 -26
0 -35 -12 -36 -12 -1 -12 -2 2 -6 14 -4 17 -22 20 -124 l3 -119 -27 0 -28 0 0
160 c0 150 1 160 19 160 14 0 20 -9 23 -35z m2121 -15 c10 0 17 -8 17 -19 0
-26 -24 -32 -85 -22 -41 7 -44 9 -17 10 29 1 33 4 27 22 -6 19 -4 21 16 16 13
-4 32 -7 42 -7z m-3258 -20 c3 -5 1 -10 -4 -10 -6 0 -11 5 -11 10 0 6 2 10 4
10 3 0 8 -4 11 -10z m212 -22 c-3 -7 -5 -2 -5 12 0 14 2 19 5 13 2 -7 2 -19 0
-25z m3193 8 l35 -16 -40 6 c-22 3 -53 7 -70 10 -24 3 -26 2 -10 -5 16 -8 17
-10 3 -10 -9 -1 -24 -4 -33 -7 -13 -5 -14 -3 -5 18 9 19 18 23 48 22 20 -1 53
-9 72 -18z m47 -15 c-2 -24 -56 -36 -113 -25 l-39 7 30 9 c17 5 47 6 68 3 28
-4 39 -1 43 10 8 21 13 19 11 -4z m-3106 -83 c0 -13 2 -42 4 -65 3 -33 1 -43
-10 -43 -12 0 -15 14 -15 62 0 34 -3 58 -7 55 -4 -4 -6 -32 -5 -61 1 -44 -2
-55 -17 -59 -15 -4 -20 3 -25 41 -12 88 -11 92 34 92 35 0 40 -3 41 -22z
m2096 6 c0 -10 -7 -14 -19 -11 -10 3 -21 1 -24 -4 -3 -5 0 -9 5 -9 6 0 11 -4
11 -10 0 -5 -7 -7 -15 -4 -8 4 -15 17 -15 30 0 20 5 24 28 24 19 0 29 -5 29
-16z m1140 0 c-3 -3 -12 -4 -19 -1 -8 3 -5 6 6 6 11 1 17 -2 13 -5z m-4090
-46 c-3 -8 -6 -5 -6 6 -1 11 2 17 5 13 3 -3 4 -12 1 -19z m2033 -8 c0 -11 -5
-20 -11 -20 -5 0 -7 5 -3 12 4 7 3 8 -4 4 -6 -4 -8 -14 -5 -23 4 -11 2 -14 -8
-11 -22 8 -67 -29 -89 -73 -22 -43 -57 -56 -44 -16 18 60 53 102 109 131 40
21 55 20 55 -4z m-2033 -57 c-3 -10 -5 -2 -5 17 0 19 2 27 5 18 2 -10 2 -26 0
-35z m3057 22 c-4 -8 -11 -15 -16 -15 -6 0 -5 6 2 15 7 8 14 15 16 15 2 0 1
-7 -2 -15z m-3570 -20 c3 -8 1 -15 -4 -15 -6 0 -10 7 -10 15 0 8 2 15 4 15 2
0 6 -7 10 -15z m1366 -80 c0 -25 -4 -45 -10 -45 -11 0 -14 73 -3 83 11 12 13
8 13 -38z m-30 -58 c0 -92 -8 -117 -37 -117 -10 0 -13 26 -13 105 l0 105 25 0
c25 0 25 0 25 -93z m-1632 49 c12 -28 7 -36 -24 -36 -29 0 -41 30 -18 47 24
18 29 17 42 -11z m1519 -8 c-3 -7 -5 -2 -5 12 0 14 2 19 5 13 2 -7 2 -19 0
-25z m933 22 c0 -5 -4 -10 -10 -10 -5 0 -10 5 -10 10 0 6 5 10 10 10 6 0 10
-4 10 -10z m1017 -36 c-3 -3 -12 -4 -19 -1 -8 3 -5 6 6 6 11 1 17 -2 13 -5z
m-3117 -19 c7 -9 8 -15 2 -15 -5 0 -12 7 -16 15 -3 8 -4 15 -2 15 2 0 9 -7 16
-15z m2580 5 c0 -5 -4 -10 -10 -10 -5 0 -10 5 -10 10 0 6 5 10 10 10 6 0 10
-4 10 -10z m-2899 -48 c7 -19 5 -22 -15 -22 -27 0 -43 29 -24 42 18 11 30 5
39 -20z m349 2 c0 -17 -22 -14 -28 4 -2 7 3 12 12 12 9 0 16 -7 16 -16z m1272
-29 c-6 -34 -12 -32 -12 6 0 16 4 28 9 25 4 -3 6 -17 3 -31z m996 -26 c53 -5
144 -21 202 -34 671 -154 1195 -605 1450 -1248 47 -121 104 -357 86 -357 -4 0
-96 14 -204 31 -140 21 -721 98 -748 99 -1 0 -15 28 -32 63 -40 79 -152 217
-231 284 -33 28 -67 53 -74 56 -9 4 -9 7 1 18 15 17 16 51 0 67 -17 17 -44 15
-73 -4 -29 -19 -32 -45 -9 -68 14 -15 14 -17 0 -22 -9 -3 -13 -10 -10 -15 9
-15 -4 -10 -48 17 -50 32 -205 96 -268 112 -115 29 -173 36 -280 35 -159 -1
-301 -36 -475 -118 -89 -42 -139 -52 -126 -26 13 23 6 77 -13 106 -35 53 -83
16 -71 -53 6 -36 3 -40 -83 -127 -101 -102 -156 -174 -201 -263 -21 -42 -38
-63 -54 -67 -20 -4 -211 -30 -412 -56 -95 -12 -492 -78 -519 -85 -16 -5 -17
-2 -11 37 30 198 67 321 146 488 158 332 365 574 670 785 238 163 594 302 864
335 50 6 101 13 115 15 57 8 318 5 408 -5z m-1131 -41 c-3 -8 -6 -5 -6 6 -1
11 2 17 5 13 3 -3 4 -12 1 -19z m-1546 -33 c11 -25 18 -49 14 -54 -3 -5 0 -11
7 -13 7 -3 3 -13 -11 -27 -19 -19 -25 -21 -33 -10 -12 17 1 -48 13 -71 17 -29
122 -295 155 -394 19 -55 42 -108 51 -118 11 -12 18 -37 19 -66 1 -40 4 -47
20 -45 15 2 22 -8 31 -40 27 -100 49 -165 60 -179 7 -8 27 -59 45 -113 l31
-99 -17 -80 c-10 -45 -25 -126 -33 -181 -9 -55 -19 -104 -23 -108 -4 -5 -65
-18 -136 -28 -71 -11 -169 -29 -218 -40 -72 -16 -91 -17 -98 -7 -14 23 -3 32
96 69 108 41 129 55 102 65 -9 3 -61 -8 -115 -25 -54 -17 -101 -31 -104 -31
-10 0 -68 152 -63 166 3 7 31 21 63 30 73 21 129 49 136 68 11 29 -12 27 -105
-9 -51 -20 -99 -37 -106 -38 -7 -1 -31 42 -56 103 -135 325 -165 403 -161 410
3 4 47 23 100 41 95 33 110 45 95 69 -6 10 -28 6 -101 -19 -52 -18 -101 -34
-109 -37 -11 -4 -24 17 -49 78 -19 46 -45 109 -59 142 -28 69 -34 62 90 106
68 24 88 36 88 50 0 10 -4 21 -9 24 -5 3 -51 -10 -102 -29 -52 -19 -99 -35
-104 -35 -6 0 -42 77 -81 170 -65 155 -70 171 -54 180 27 15 97 37 190 60 47
12 139 37 205 56 101 30 181 44 298 53 12 1 24 -13 38 -44z m100 24 c8 -16 8
-28 0 -46 -9 -21 -8 -25 12 -33 14 -6 16 -9 6 -9 -24 -1 -87 88 -72 103 13 13
43 5 54 -15z m260 -6 c18 -45 22 -90 10 -97 -6 -4 -15 3 -21 18 -9 24 -15 26
-64 26 -30 0 -61 3 -70 6 -9 3 -16 2 -16 -4 0 -5 10 -13 23 -17 19 -6 19 -8 5
-12 -24 -6 -23 -25 2 -46 11 -9 23 -31 27 -47 3 -17 8 -30 12 -30 12 0 53 -69
46 -79 -13 -21 -32 -10 -47 27 -62 149 -86 202 -106 233 -12 20 -22 39 -22 43
0 3 47 6 105 6 l105 0 11 -27z m199 -31 l0 -47 -24 45 c-16 29 -20 47 -13 52
23 14 37 -5 37 -50z m-90 23 c0 -18 -5 -25 -19 -25 -10 0 -26 11 -35 25 l-16
25 35 0 c31 0 35 -3 35 -25z m420 -74 c0 -11 -59 -20 -65 -11 -7 11 1 15 34
17 17 1 31 -2 31 -6z m-481 -81 c2 15 39 -70 44 -100 1 -8 6 -18 11 -21 5 -4
10 -25 12 -48 2 -22 11 -53 20 -68 15 -24 15 -26 2 -13 -26 24 -108 240 -107
280 l2 35 7 -40 c4 -22 8 -33 9 -25z m885 41 c3 -5 -1 -14 -9 -21 -13 -10 -15
-9 -15 9 0 21 14 28 24 12z m-1150 -47 c3 -8 2 -12 -4 -9 -6 3 -10 10 -10 16
0 14 7 11 14 -7z m376 -19 c0 -5 -5 -3 -10 5 -5 8 -10 20 -10 25 0 6 5 3 10
-5 5 -8 10 -19 10 -25z m-474 0 c-11 -8 -25 -15 -30 -15 -6 0 -2 7 8 15 11 8
25 15 30 15 6 0 2 -7 -8 -15z m64 -105 c58 -135 80 -190 75 -190 -2 0 -13 17
-24 38 -11 20 -21 30 -21 22 -1 -9 -5 -6 -10 8 -5 12 -7 29 -4 37 4 11 2 13
-9 9 -10 -3 -18 2 -22 17 -6 17 -9 19 -16 8 -5 -8 -9 -9 -9 -3 0 5 7 19 15 30
19 25 19 35 0 28 -8 -4 -15 -1 -15 5 0 6 5 11 11 11 5 0 7 5 3 12 -6 9 -9 9
-12 0 -8 -24 -22 -11 -22 21 0 29 8 52 16 45 1 -2 21 -46 44 -98z m101 -12 c7
-13 6 -18 -3 -18 -7 0 -18 17 -25 38 -10 34 -10 35 3 17 9 -11 20 -28 25 -37z
m129 -18 c0 -5 -7 -10 -15 -10 -13 0 -12 -8 5 -52 11 -28 25 -55 31 -58 8 -6
8 -9 0 -14 -7 -5 -19 11 -31 39 -32 75 -34 93 -13 98 10 3 19 5 21 6 1 0 2 -3
2 -9z m-64 -116 c11 -25 12 -40 5 -47 -12 -12 -51 70 -51 106 l0 21 15 -22 c9
-12 23 -38 31 -58z m-40 -191 c-3 -7 -11 -13 -18 -13 -9 0 -13 14 -12 42 0 27
-5 47 -14 54 -10 7 -12 18 -7 35 7 21 11 17 32 -40 13 -35 22 -70 19 -78z
m162 87 c6 -16 7 -30 3 -30 -5 0 -11 8 -14 18 -2 9 -8 26 -13 36 -5 13 -4 17
3 13 6 -4 16 -20 21 -37z m-63 -26 c0 -26 -31 -30 -38 -4 -3 11 -1 18 4 14 5
-3 9 0 9 6 0 7 6 10 13 8 6 -3 12 -13 12 -24z m-55 -150 c0 -7 6 -14 12 -16 7
-3 -2 -10 -20 -16 -17 -6 -32 -7 -32 -2 0 4 -3 16 -7 26 -5 14 -3 16 11 11 16
-6 18 -3 13 20 -5 26 -4 26 9 8 8 -10 14 -24 14 -31z m-40 26 c0 -5 -7 -10
-15 -10 -8 0 -15 5 -15 10 0 6 7 10 15 10 8 0 15 -4 15 -10z m240 -45 c0 -8
-2 -15 -4 -15 -2 0 -6 7 -10 15 -3 8 -1 15 4 15 6 0 10 -7 10 -15z m-70 -19
c0 -3 -4 -8 -10 -11 -5 -3 -10 -1 -10 4 0 6 5 11 10 11 6 0 10 -2 10 -4z
m4807 -496 c47 -27 73 -54 73 -77 0 -12 -51 -18 -132 -16 -65 1 -67 0 -57 -18
6 -11 8 -25 5 -32 -2 -7 -5 -4 -5 6 -1 19 -16 23 -26 7 -3 -5 -18 -11 -33 -11
-27 -1 -27 -1 3 -8 28 -6 26 -8 -25 -18 -30 -6 -58 -9 -62 -6 -14 8 -8 23 10
23 22 1 54 25 45 34 -4 4 -1 5 7 2 27 -10 40 7 31 39 -7 21 -10 24 -10 10 -1
-14 -14 -26 -41 -38 -22 -9 -45 -17 -50 -17 -6 0 -10 -4 -10 -10 0 -5 -7 -10
-15 -10 -14 0 -19 -20 -17 -59 0 -7 -12 -24 -26 -37 -23 -19 -29 -21 -41 -9
-12 12 -12 17 1 37 8 13 23 49 32 81 17 57 17 57 56 57 32 0 42 5 61 31 26 37
90 69 139 69 21 0 56 -12 87 -30z m-5585 -57 c17 -48 17 -48 -2 -23 -11 14
-20 28 -20 31 0 3 -18 1 -40 -4 -44 -12 -67 -49 -56 -92 7 -27 -17 -75 -28
-57 -3 6 0 12 6 15 7 2 10 7 7 11 -4 4 -14 -1 -23 -10 -25 -25 -31 -9 -13 33
9 21 18 54 22 74 7 45 25 62 58 54 14 -4 34 -2 44 4 26 15 27 15 45 -36z
m3052 12 c56 -15 188 -70 225 -95 20 -13 -28 -15 -457 -15 l-479 0 69 38 c38
20 71 37 74 37 3 0 26 9 51 21 27 12 82 24 132 29 110 11 318 2 385 -15z
m2670 -1 c19 -18 20 -31 5 -36 -9 -3 -9 -9 0 -25 6 -12 11 -28 11 -35 -1 -7
-8 2 -16 21 -8 19 -13 40 -10 46 2 6 -8 10 -22 10 -17 0 -28 6 -30 18 -5 22
40 24 62 1z m-5748 -49 c-3 -8 -14 -12 -26 -10 -14 3 -20 -1 -20 -16 0 -20 24
-26 35 -9 3 6 11 10 17 10 6 0 -6 -16 -28 -35 -40 -35 -67 -47 -44 -20 7 9 10
27 7 44 -7 32 8 58 38 63 22 4 30 -5 21 -27z m3724 -189 c487 -45 651 -65
1025 -127 355 -59 557 -99 680 -135 50 -14 117 -33 150 -41 60 -15 84 -28 73
-38 -3 -4 -64 7 -134 24 -71 17 -196 42 -279 56 -82 15 -195 35 -250 46 -331
63 -809 122 -1350 165 -161 13 -346 17 -790 18 -578 1 -709 -4 -1005 -39 -69
-8 -190 -21 -270 -30 -133 -14 -239 -29 -515 -71 -127 -19 -520 -89 -645 -114
-52 -10 -115 -22 -140 -25 -25 -4 -81 -15 -125 -26 -61 -14 -81 -16 -87 -6
-10 16 -10 35 1 41 17 11 513 108 771 151 499 83 1064 151 1410 169 36 2 344
2 685 1 481 -2 659 -6 795 -19z m-805 -207 l140 -131 2 39 c2 21 5 80 9 131
l6 93 71 -3 72 -3 -3 -265 c-2 -146 -6 -267 -8 -269 -11 -11 -87 -2 -103 13
-9 9 -21 13 -25 9 -4 -5 -6 -3 -4 2 1 6 -40 51 -92 100 -152 144 -136 144
-132 -1 l4 -124 -75 0 -74 0 -6 158 c-4 86 -7 208 -7 270 l0 112 43 0 c40 -1
49 -7 182 -131z m819 100 c1 -2 -1 -74 -6 -159 -4 -85 -6 -169 -3 -187 10 -58
82 -91 137 -62 32 17 45 66 59 222 7 81 17 151 23 156 11 9 132 -2 143 -13 10
-9 -18 -306 -33 -364 -28 -102 -113 -162 -229 -162 -148 0 -249 84 -257 215
-3 51 11 356 17 365 4 6 143 -4 149 -11z m-1533 -24 c136 -70 196 -204 153
-341 -24 -79 -97 -153 -174 -179 -67 -22 -170 -23 -229 -1 -66 24 -126 78
-157 141 -24 50 -26 64 -22 135 4 65 10 87 34 126 61 99 159 147 285 140 45
-2 90 -11 110 -21z m2497 -100 c114 -20 213 -38 221 -40 10 -4 12 -21 9 -70
-2 -35 -7 -67 -11 -71 -3 -4 -26 -2 -49 5 -24 6 -61 13 -82 14 l-40 2 -23
-199 c-13 -110 -25 -201 -27 -203 -8 -8 -148 21 -152 31 -2 6 9 97 25 201 15
105 26 193 24 197 -2 4 -37 12 -79 19 l-76 12 6 51 c11 80 17 98 32 92 8 -3
108 -21 222 -41z m-3453 4 c72 -13 101 -27 144 -71 76 -76 99 -215 51 -310
-47 -94 -118 -135 -291 -167 -147 -27 -157 -27 -164 2 -12 49 -87 488 -87 504
1 9 108 29 217 42 39 5 70 9 71 10 0 0 27 -4 59 -10z m4085 -152 c54 -11 66
-17 68 -35 4 -26 6 -26 -88 -3 -41 10 -94 22 -117 26 -38 6 -53 21 -38 37 6 5
73 -4 175 -25z m-4763 7 c3 -10 -90 -34 -194 -50 -34 -5 -43 -4 -43 8 0 10 25
20 83 32 45 10 87 20 92 22 19 6 59 -1 62 -12z m-444 -21 c-7 -2 -21 -2 -30 0
-10 3 -4 5 12 5 17 0 24 -2 18 -5z m-209 -95 c3 -13 2 -26 -2 -29 -12 -11
-203 -52 -257 -55 l-50 -4 55 26 c80 38 198 79 236 83 7 0 14 -9 18 -21z
m5902 3 c-3 -5 26 -17 65 -27 50 -13 65 -20 52 -25 -17 -7 -17 -8 1 -8 11 -1
17 -3 14 -6 -3 -3 -39 0 -81 6 -69 10 -77 14 -77 34 0 12 3 25 7 28 10 10 25
8 19 -2z m-5346 -30 c0 -10 -99 -44 -115 -39 -13 3 -7 31 8 40 17 11 107 10
107 -1z m-830 -8 c-8 -3 -27 -14 -41 -24 -25 -17 -39 -16 -39 3 0 12 39 27 70
27 15 -1 19 -3 10 -6z m474 -9 c5 -14 4 -15 -9 -4 -17 14 -19 20 -6 20 5 0 12
-7 15 -16z m5224 10 c13 -4 22 -14 22 -25 0 -16 -5 -18 -27 -13 -41 10 -64 24
-58 35 7 10 30 11 63 3z m-5085 -65 c7 0 2 -4 -11 -9 -12 -5 -29 -7 -37 -4
-20 8 -19 -6 3 -22 9 -7 12 -14 5 -14 -6 0 -15 5 -18 10 -3 6 -19 10 -36 10
-40 0 -37 -20 4 -21 30 0 31 -1 8 -10 -16 -6 -28 -6 -37 2 -22 18 -16 38 14
45 15 3 36 9 47 14 11 5 26 7 33 4 8 -2 19 -4 25 -5z m-325 -27 c3 -18 -1 -22
-24 -22 -16 0 -68 -10 -116 -22 -49 -11 -91 -19 -94 -15 -14 13 11 27 94 52
48 15 92 28 97 30 22 8 40 -1 43 -23z m5942 7 c73 -14 64 -26 -29 -35 l-61 -7
0 33 c0 23 4 31 14 27 8 -3 42 -11 76 -18z m-5757 -26 c4 -19 2 -33 -3 -33 -6
0 -10 17 -10 37 0 43 5 41 13 -4z m387 -2 c0 -27 -5 -29 -96 -35 -57 -4 -72
-2 -55 5 13 5 29 16 35 24 11 14 38 21 89 24 21 1 27 -4 27 -18z m4840 -30 c0
-15 -5 -17 -32 -12 -46 9 -48 31 -4 31 29 0 36 -4 36 -19z m-5485 -61 c-19 -8
-19 -9 3 -9 12 -1 22 -5 22 -10 0 -9 -76 -41 -97 -41 -12 0 -39 39 -28 41 3 1
9 2 14 3 5 0 12 4 16 8 4 4 14 4 23 1 10 -4 13 -2 8 5 -5 8 3 12 26 11 27 0
30 -2 13 -9z m85 0 c0 -5 -5 -10 -11 -10 -5 0 -7 5 -4 10 3 6 8 10 11 10 2 0
4 -4 4 -10z m323 3 c-7 -2 -21 -2 -30 0 -10 3 -4 5 12 5 17 0 24 -2 18 -5z
m-323 -77 c0 -4 -96 -36 -107 -36 -4 0 -1 5 7 10 13 9 13 10 0 11 -8 1 3 5 25
8 55 9 75 10 75 7z m-80 -70 c0 -2 -7 -7 -16 -10 -8 -3 -12 -2 -9 4 6 10 25
14 25 6z m3643 -22 l45 -6 -21 -35 c-11 -20 -33 -41 -49 -47 -16 -7 -26 -15
-23 -18 4 -3 -8 -16 -25 -28 -17 -12 -42 -32 -55 -44 -71 -66 -243 -137 -393
-163 -82 -14 -114 -14 -202 -5 -109 12 -237 41 -286 66 -16 8 -56 27 -88 43
l-60 28 45 6 44 6 -42 1 c-23 1 -53 6 -66 11 -27 10 -177 155 -177 170 0 5 15
12 33 14 54 7 1271 7 1320 1z m338 -177 c26 -8 70 -12 106 -9 74 5 294 -16
308 -29 10 -10 -61 -5 -99 7 -17 6 -18 2 -13 -29 3 -23 1 -40 -7 -46 -14 -12
-98 -12 -91 0 7 10 -52 29 -89 29 -24 0 -28 -3 -16 -11 11 -8 7 -9 -17 -4 -26
5 -32 3 -38 -14 -3 -11 -19 -28 -35 -38 -21 -12 -26 -19 -17 -25 9 -6 9 -8 -2
-8 -9 0 -11 -8 -7 -24 9 -38 -77 -106 -135 -106 -15 0 -19 7 -19 31 0 16 -4
28 -9 24 -5 -3 -8 -22 -5 -43 3 -23 1 -30 -4 -19 -7 16 -10 15 -42 -9 -38 -29
-170 -94 -189 -94 -7 0 -9 -5 -5 -12 4 -7 3 -8 -4 -4 -14 8 -83 -35 -79 -49 2
-5 19 -11 38 -13 55 -5 54 -18 -5 -61 -31 -23 -56 -46 -56 -51 0 -5 -12 -13
-27 -16 -16 -4 -45 -16 -67 -26 -102 -51 -317 -120 -378 -121 -27 0 -48 -5
-48 -10 0 -5 7 -7 15 -3 8 3 15 2 15 -3 0 -5 -21 -11 -47 -14 -40 -4 -62 1
-132 31 -47 21 -102 54 -124 74 -45 42 -56 48 -115 58 l-43 7 23 -25 c13 -14
17 -22 11 -18 -9 5 -12 0 -10 -14 1 -13 -7 -28 -20 -37 -20 -13 -23 -13 -40 6
-10 11 -37 58 -61 103 -24 46 -41 73 -39 61 3 -13 0 -26 -6 -30 -7 -3 -9 -3
-5 2 4 4 3 14 -3 22 -9 10 -8 17 2 31 13 15 12 16 -3 4 -13 -10 -22 -11 -37
-2 -19 10 -22 15 -20 38 0 4 9 10 20 14 12 5 18 4 14 -2 -3 -5 -2 -17 3 -26 6
-11 11 -13 16 -5 4 6 1 11 -6 11 -7 1 -2 7 12 15 22 12 22 14 6 15 -19 0 -19
0 0 19 11 10 30 22 42 25 12 4 35 19 52 32 47 40 54 134 9 134 -21 0 -26 -15
-6 -24 6 -4 2 -4 -10 -2 -13 2 -26 0 -29 -5 -3 -5 1 -9 8 -10 7 0 -7 -9 -32
-19 -28 -12 -57 -17 -77 -13 -35 6 -53 -14 -54 -64 0 -25 -3 -23 -26 22 -14
29 -42 62 -64 77 -35 25 -52 58 -30 58 4 0 25 16 46 36 33 31 44 35 72 31 30
-5 33 -4 28 14 -6 17 -3 19 20 13 27 -7 27 -7 12 23 -9 16 -33 37 -54 47 -21
11 -46 23 -55 27 -10 5 -30 10 -45 10 -26 2 -26 2 -4 6 13 3 36 -1 50 -7 73
-34 90 -43 117 -66 16 -14 28 -32 26 -39 -3 -16 24 -38 40 -32 8 4 5 8 -9 12
-13 4 -23 11 -23 16 0 13 12 11 33 -5 17 -13 15 -46 -3 -46 -5 0 -16 -3 -26
-7 -12 -4 -15 -3 -10 5 4 7 0 15 -9 18 -23 9 -33 -6 -12 -17 9 -6 15 -14 12
-19 -3 -5 9 -3 27 4 55 22 91 29 82 15 -5 -9 -2 -10 11 -6 9 4 23 4 29 -1 17
-13 134 -58 196 -76 127 -36 341 -48 480 -26 162 26 349 108 475 210 22 17 41
27 43 22 4 -12 30 0 79 36 73 52 133 63 214 39z m-1926 -17 l-30 -8 29 -1 c28
-1 29 -2 10 -16 -18 -14 -18 -14 6 -15 17 0 21 -3 12 -9 -25 -16 34 -43 78
-36 33 5 40 3 50 -14 7 -14 7 -21 0 -21 -5 0 -10 -6 -10 -14 0 -8 -6 -16 -12
-19 -7 -2 -48 -30 -91 -61 -43 -31 -82 -56 -87 -56 -5 0 -17 11 -26 25 -16 25
-16 27 7 52 21 23 22 25 5 19 -18 -6 -19 -5 -4 11 23 27 33 47 19 39 -6 -4
-14 -1 -17 8 -3 8 -12 12 -19 10 -7 -3 -16 3 -19 14 -9 28 -47 50 -98 58 -24
4 -46 11 -49 17 -9 14 -31 -2 -25 -18 3 -8 0 -16 -7 -19 -7 -2 -5 -5 5 -5 9
-1 23 -9 30 -18 7 -10 22 -23 33 -29 34 -19 25 -84 -11 -84 -7 0 -44 29 -81
65 -37 35 -74 65 -80 65 -26 0 -12 19 20 26 17 4 26 9 20 11 -33 11 -6 22 60
26 132 6 313 4 282 -3z m62 -6 c-3 -3 -12 -4 -19 -1 -8 3 -5 6 6 6 11 1 17 -2
13 -5z m-672 -38 c11 -8 16 -19 12 -30 -4 -9 -3 -15 2 -12 21 13 72 -79 57
-103 -10 -16 -68 24 -127 87 l-54 57 40 6 c22 3 43 7 46 8 3 0 14 -5 24 -13z
m3024 -7 c-11 -11 -38 -48 -60 -82 -22 -34 -45 -65 -52 -69 -16 -10 -36 -10
-21 0 17 12 64 78 64 90 0 7 -4 12 -10 12 -5 0 -10 -7 -10 -15 0 -22 -17 -18
-23 4 -3 14 -1 18 9 14 8 -3 14 0 14 5 0 6 12 10 26 9 15 -1 29 3 31 10 3 7
-3 9 -18 6 -15 -4 -20 -3 -15 5 4 7 18 12 32 12 14 0 22 4 19 10 -3 6 3 10 14
10 l21 0 -21 -21z m-2333 -26 c-8 -8 -36 5 -36 17 0 7 6 7 21 0 11 -7 18 -14
15 -17z m-423 -83 c23 -24 29 -33 13 -20 -51 43 -75 74 -75 95 0 17 2 16 10
-5 6 -14 29 -45 52 -70z m567 60 c0 -5 -5 -10 -11 -10 -5 0 -7 5 -4 10 3 6 8
10 11 10 2 0 4 -4 4 -10z m2036 -21 c-1 -23 -8 -34 -24 -40 -13 -5 -20 -14
-16 -23 5 -12 -1 -13 -38 -3 l-43 11 35 6 c44 8 60 17 60 36 0 11 18 41 26 44
1 0 1 -14 0 -31z m-2066 -9 c-8 -5 -19 -10 -25 -10 -5 0 -3 5 5 10 8 5 20 10
25 10 6 0 3 -5 -5 -10z m2100 -10 c0 -5 -4 -10 -10 -10 -5 0 -10 5 -10 10 0 6
5 10 10 10 6 0 10 -4 10 -10z m-2382 -55 c-3 -3 -9 2 -12 12 -6 14 -5 15 5 6
7 -7 10 -15 7 -18z m-548 -20 c7 -9 8 -15 2 -15 -5 0 -12 7 -16 15 -3 8 -4 15
-2 15 2 0 9 -7 16 -15z m-1594 -32 c-11 -11 -17 4 -9 23 7 18 8 18 11 1 2 -10
1 -21 -2 -24z m2045 3 c-12 -29 -33 -33 -71 -11 -24 14 -24 14 12 8 30 -4 38
-2 48 17 16 29 23 20 11 -14z m2439 24 c0 -5 -10 -10 -22 -9 -22 0 -22 1 -3 9
11 5 21 9 23 9 1 1 2 -3 2 -9z m-2345 -19 c3 -5 1 -12 -5 -16 -5 -3 -10 1 -10
9 0 18 6 21 15 7z m2403 -8 c-4 -19 -53 -51 -64 -41 -7 8 43 58 58 58 5 0 8
-8 6 -17z m-2753 -3 c4 -6 11 -8 16 -5 5 3 6 -1 3 -10 -6 -14 -9 -14 -31 0
-16 11 -35 14 -51 11 -20 -5 -23 -4 -12 4 19 13 67 13 75 0z m527 -30 c7 0 0
-11 -15 -24 -16 -14 -35 -22 -42 -20 -7 3 -16 0 -20 -6 -4 -6 -1 -11 6 -9 30
4 35 -2 37 -41 2 -30 -1 -40 -12 -40 -23 0 -200 51 -210 61 -13 12 -14 63 -2
71 6 4 20 8 31 7 15 0 13 -3 -10 -14 l-30 -14 37 2 c20 1 34 5 32 9 -2 4 0 10
6 13 6 4 10 3 9 -2 -6 -36 37 -42 88 -13 18 11 42 17 53 15 11 -2 20 1 20 7 0
5 -7 8 -15 4 -18 -7 -20 5 -3 22 10 10 14 8 20 -8 4 -11 13 -20 20 -20z m1907
13 c2 -2 -3 -3 -11 -3 -9 0 -19 7 -22 16 -6 15 -4 15 11 3 10 -7 20 -15 22
-16z m-52 -5 c-3 -8 -6 -5 -6 6 -1 11 2 17 5 13 3 -3 4 -12 1 -19z m-2753 -2
c42 -18 113 -80 132 -117 8 -16 14 -54 14 -86 0 -82 45 -174 100 -203 14 -7
20 -15 13 -17 -17 -6 -64 21 -95 54 -38 39 -55 86 -63 173 -11 114 -57 171
-160 196 -50 12 -50 12 -12 13 21 1 53 -5 71 -13z m673 8 c-3 -3 -12 -4 -19
-1 -8 3 -5 6 6 6 11 1 17 -2 13 -5z m2173 -14 c0 -5 -12 -10 -27 -9 l-28 1 25
8 c14 4 26 8 28 9 1 1 2 -3 2 -9z m-2452 -18 c41 -5 53 -22 15 -21 -43 2 -76
13 -81 28 -4 11 0 12 14 6 11 -4 34 -10 52 -13z m832 6 c0 -10 -60 -48 -75
-48 -5 1 2 8 18 16 15 8 27 20 27 28 0 7 7 13 15 13 8 0 15 -4 15 -9z m1608
-16 c6 -1 12 -9 12 -18 0 -8 5 -12 11 -8 8 4 8 0 0 -14 -12 -22 -40 -32 -149
-53 -34 -6 -65 -16 -68 -20 -11 -18 -35 -8 -44 17 -14 36 -3 47 70 69 33 10
60 21 60 24 0 5 71 7 108 3z m-2525 -63 c18 -18 23 -27 12 -21 -22 11 -62 52
-51 52 3 0 21 -14 39 -31z m617 21 c0 -5 -4 -10 -10 -10 -5 0 -10 5 -10 10 0
6 5 10 10 10 6 0 10 -4 10 -10z m1660 0 c0 -5 -2 -10 -4 -10 -3 0 -8 5 -11 10
-3 6 -1 10 4 10 6 0 11 -4 11 -10z m-22 -41 c-3 -8 -7 -3 -11 10 -4 17 -3 21
5 13 5 -5 8 -16 6 -23z m-2111 -4 c-4 -8 -11 -15 -17 -15 -6 0 -6 7 2 20 14
22 24 19 15 -5z m530 -7 c-3 -8 -6 -5 -6 6 -1 11 2 17 5 13 3 -3 4 -12 1 -19z
m2187 6 c3 -8 1 -24 -4 -35 -9 -16 -22 -19 -73 -19 -70 0 -87 7 -83 35 4 25
29 33 97 34 43 1 58 -3 63 -15z m-501 -51 c-7 -2 -19 -2 -25 0 -7 3 -2 5 12 5
14 0 19 -2 13 -5z m-1991 -36 c23 -36 3 -44 -90 -39 -50 3 -64 8 -73 24 -8 16
-8 23 2 30 19 12 151 0 161 -15z m1678 8 c19 -23 8 -26 -19 -4 -16 13 -18 19
-8 19 8 0 20 -7 27 -15z m-2356 -4 c3 -5 12 -43 20 -84 8 -41 24 -94 36 -117
29 -57 92 -117 153 -146 46 -22 48 -24 17 -19 -39 8 -38 8 -65 6 -18 -1 -19
-2 -2 -12 9 -5 22 -7 28 -4 5 4 16 2 24 -5 7 -6 38 -14 67 -17 49 -5 62 -1
138 37 71 36 91 41 127 37 62 -7 79 -27 87 -98 9 -79 30 -136 68 -183 18 -22
26 -36 20 -32 -7 4 -12 2 -12 -3 0 -12 59 -51 107 -70 26 -11 44 -11 95 -1
100 20 146 23 178 12 22 -8 30 -8 31 1 0 7 7 -1 14 -18 14 -30 20 -150 9 -179
-3 -9 -12 -16 -19 -16 -14 0 -105 96 -105 111 0 5 -7 9 -16 9 -16 0 -16 -11 2
-54 6 -17 4 -18 -20 -12 -15 4 -46 20 -68 36 -23 17 -48 30 -57 30 -13 0 -14
-2 -2 -9 8 -5 11 -16 8 -25 -4 -9 -2 -16 3 -16 6 0 10 -4 10 -10 0 -14 -20
-12 -50 3 -14 7 -45 19 -70 27 -38 12 -90 40 -198 105 -100 60 -291 198 -361
260 -57 50 -143 136 -204 205 -56 62 -162 209 -155 215 38 33 149 58 162 36z
m803 3 c-3 -3 -12 -4 -19 -1 -8 3 -5 6 6 6 11 1 17 -2 13 -5z m1685 -24 c17
-17 27 -34 24 -38 -4 -3 -12 0 -17 8 -7 10 -12 11 -15 4 -6 -13 -44 -7 -44 7
0 5 -7 9 -16 9 -14 0 -16 -9 -12 -50 6 -56 -6 -68 -16 -16 -7 37 -1 62 22 89
21 24 39 21 74 -13z m-1487 -30 c-3 -5 -18 -10 -33 -9 l-27 1 25 8 c35 11 42
11 35 0z m75 0 c0 -5 -4 -10 -10 -10 -5 0 -10 5 -10 10 0 6 5 10 10 10 6 0 10
-4 10 -10z m4 -32 c-3 -4 1 -8 8 -8 10 0 10 -2 -1 -9 -17 -11 -43 -3 -35 10 3
5 -1 6 -9 3 -10 -3 -3 -16 25 -43 36 -37 50 -71 28 -71 -5 0 -10 4 -10 9 0 11
-119 70 -155 77 -16 3 -32 7 -37 10 -18 11 -7 -45 14 -72 12 -16 15 -23 7 -17
-9 7 -20 9 -24 5 -5 -4 -6 -2 -2 3 3 6 -3 22 -13 35 -17 23 -18 26 -2 53 17
28 19 28 90 25 54 -3 71 -1 68 8 -3 9 2 9 24 1 16 -6 27 -15 24 -19z m1283 10
c-3 -8 -6 -5 -6 6 -1 11 2 17 5 13 3 -3 4 -12 1 -19z m-27 -37 c0 -10 -62 -41
-82 -41 -7 1 7 12 32 25 53 28 50 27 50 16z m-1630 -52 c0 -5 4 -8 9 -6 5 1
18 -9 30 -22 19 -21 21 -36 21 -139 l0 -115 45 -45 c25 -25 44 -47 42 -49 -13
-12 -84 26 -104 56 -21 31 -23 46 -23 151 0 108 -2 120 -24 153 -15 22 -19 34
-10 30 8 -3 14 -9 14 -14z m1675 1 c4 -6 10 -8 15 -5 4 3 6 -4 3 -15 -3 -11
-9 -22 -13 -25 -11 -7 -43 32 -35 44 8 14 22 14 30 1z m-1386 -77 c14 -9 41
-22 60 -29 25 -9 29 -13 15 -14 -27 0 -86 24 -78 33 3 3 -13 4 -37 2 -42 -4
-43 -3 -19 10 32 18 31 18 59 -2z m1119 10 c26 -4 33 -9 29 -24 -3 -11 0 -16
7 -13 13 5 56 -31 56 -46 0 -5 -13 -4 -31 2 -17 6 -47 8 -67 6 -20 -3 -48 -1
-62 4 -21 6 -20 7 8 3 17 -2 32 -1 32 4 0 11 -93 23 -114 15 -9 -3 -16 -15
-16 -26 0 -10 -4 -17 -9 -14 -10 7 -2 56 10 56 5 0 9 6 9 14 0 22 71 31 148
19z m402 -32 c0 -6 -4 -12 -8 -15 -5 -3 -9 1 -9 9 0 8 4 15 9 15 4 0 8 -4 8
-9z m-1192 -64 c4 -48 -19 -87 -53 -87 -14 0 -29 8 -35 20 -9 16 -8 18 5 14
19 -8 65 3 65 16 0 5 -15 6 -34 3 -29 -4 -35 -2 -41 18 -10 29 27 61 64 57 22
-3 26 -9 29 -41z m462 9 c0 -2 3 -12 7 -22 4 -12 3 -15 -6 -10 -7 5 -45 -9
-89 -32 -42 -22 -90 -40 -105 -40 l-29 1 29 19 c79 54 193 103 193 84z m1258
-87 c35 -6 62 -14 60 -19 -17 -41 -320 -256 -465 -328 -164 -83 -395 -162
-573 -197 -129 -25 -445 -40 -589 -27 -165 15 -187 22 -195 70 -3 20 -6 54 -6
74 l0 37 26 -24 c15 -13 49 -29 79 -35 46 -10 60 -8 111 11 158 58 188 58 294
5 36 -18 96 -43 134 -56 130 -43 266 -7 349 93 23 28 58 68 79 89 l36 39 154
-3 c151 -3 154 -3 199 24 69 41 95 77 114 159 9 40 21 81 26 92 12 21 23 21
167 -4z m-1889 -83 c65 -34 113 -126 110 -209 -1 -20 -1 -20 -8 3 -19 61 -64
131 -112 174 -52 46 -47 61 10 32z m566 -107 c22 -6 60 -20 85 -32 25 -11 63
-28 85 -38 72 -33 16 -20 -72 17 -110 45 -190 53 -293 29 -84 -19 -166 -21
-186 -4 -25 21 -14 26 36 15 39 -8 66 -6 123 6 89 19 169 21 222 7z"/>
<path d="M3510 7622 c0 -4 16 -6 35 -4 19 2 35 6 35 8 0 2 -16 4 -35 4 -19 0
-35 -4 -35 -8z"/>
<path d="M3492 7571 c-15 -16 -19 -27 -12 -29 16 -6 43 22 38 40 -2 11 -9 8
-26 -11z"/>
<path d="M3402 7228 c-6 -6 -12 -29 -12 -50 0 -31 4 -39 24 -44 13 -3 34 -1
46 6 17 9 21 19 18 53 -3 39 -5 42 -33 45 -17 2 -36 -3 -43 -10z"/>
<path d="M5840 6578 c0 -29 -3 -63 -6 -75 -6 -20 -3 -23 25 -23 l32 0 -3 73
c-3 66 -5 72 -25 75 -21 3 -23 0 -23 -50z"/>
<path d="M6007 6623 c-2 -5 -5 -33 -6 -63 -2 -30 -5 -58 -7 -61 -2 -4 10 -9
26 -11 l30 -5 0 68 c0 52 -4 68 -16 73 -20 8 -22 8 -27 -1z"/>
<path d="M5803 6343 c15 -2 39 -2 55 0 15 2 2 4 -28 4 -30 0 -43 -2 -27 -4z"/>
<path d="M5834 6245 c-3 -19 -3 -55 0 -80 6 -39 10 -45 32 -45 23 0 24 2 24
80 0 78 -1 80 -25 80 -20 0 -25 -6 -31 -35z"/>
<path d="M6023 6272 c-11 -7 -16 -51 -14 -119 1 -28 5 -33 26 -33 26 0 26 0
23 77 -3 74 -10 91 -35 75z"/>
<path d="M5780 6030 c0 -6 30 -10 70 -10 40 0 70 4 70 10 0 6 -30 10 -70 10
-40 0 -70 -4 -70 -10z"/>
<path d="M6362 7157 c-23 -24 -28 -37 -14 -37 4 0 15 14 24 30 21 36 18 37
-10 7z"/>
<path d="M6411 7134 c-16 -36 -14 -46 11 -42 25 4 37 28 14 28 -9 0 -16 5 -16
11 0 6 7 9 15 5 8 -3 15 -1 15 3 0 22 -28 17 -39 -5z"/>
<path d="M6495 7143 c4 -10 10 -26 12 -35 3 -10 9 -18 14 -18 12 0 11 6 -6 40
-17 32 -32 41 -20 13z"/>
<path d="M6336 7073 c-3 -4 -6 -15 -6 -25 0 -16 3 -17 20 -8 11 6 20 15 20 19
0 11 -26 22 -34 14z"/>
<path d="M6507 7063 c-4 -3 -7 -15 -7 -25 0 -26 24 -17 28 10 3 21 -8 29 -21
15z"/>
<path d="M6373 7001 c-10 -16 -9 -20 3 -25 22 -9 24 -8 18 9 -4 10 0 15 10 15
9 0 19 -7 22 -15 6 -15 24 -12 24 4 0 8 -44 31 -58 31 -4 0 -13 -9 -19 -19z"/>
<path d="M6465 6990 c-3 -5 -2 -10 4 -10 5 0 13 5 16 10 3 6 2 10 -4 10 -5 0
-13 -4 -16 -10z"/>
<path d="M4016 6598 c-21 -29 -22 -60 -2 -33 12 17 17 18 41 7 15 -7 30 -11
32 -8 8 8 -7 26 -23 26 -8 0 -14 5 -14 11 0 6 9 8 23 4 17 -5 19 -4 7 4 -24
17 -48 13 -64 -11z"/>
<path d="M4004 6505 c-17 -32 -18 -38 -4 -63 20 -35 52 -39 79 -10 30 31 24
61 -14 69 l-30 7 28 1 c41 2 36 31 -6 31 -28 0 -37 -6 -53 -35z m38 -47 c-9
-9 -12 -7 -12 12 0 19 3 21 12 12 9 -9 9 -15 0 -24z"/>
<path d="M4270 6370 c0 -8 5 -22 10 -30 9 -13 10 -13 10 0 0 8 -5 22 -10 30
-9 13 -10 13 -10 0z"/>
<path d="M2040 5965 c-14 -8 -20 -14 -15 -14 6 0 21 6 35 14 14 8 21 14 15 14
-5 0 -21 -6 -35 -14z"/>
<path d="M1955 5931 c-22 -11 -35 -19 -30 -19 14 -1 93 36 80 37 -5 0 -28 -8
-50 -18z"/>
<path d="M4937 6489 c-51 -58 -57 -80 -57 -221 0 -80 -3 -98 -15 -98 -12 0
-15 19 -15 115 0 96 -3 115 -15 115 -8 0 -15 -8 -16 -17 0 -10 -2 -66 -4 -125
l-4 -108 135 0 134 0 0 140 0 141 -41 54 c-23 30 -45 55 -49 55 -5 0 -29 -23
-53 -51z m71 -162 c2 -142 2 -147 -18 -147 -19 0 -20 6 -20 134 0 139 4 170
24 163 7 -2 12 -53 14 -150z"/>
<path d="M4891 6054 c0 -11 3 -14 6 -6 3 7 2 16 -1 19 -3 4 -6 -2 -5 -13z"/>
<path d="M7030 6409 c-6 -11 -9 -28 -7 -37 3 -12 5 -11 6 6 1 13 7 22 17 22 8
0 13 4 9 9 -3 5 5 12 17 14 20 4 20 4 -4 6 -18 1 -31 -6 -38 -20z"/>
<path d="M7258 6363 c7 -3 16 -2 19 1 4 3 -2 6 -13 5 -11 0 -14 -3 -6 -6z"/>
<path d="M7555 6280 c11 -5 27 -9 35 -9 9 0 8 4 -5 9 -11 5 -27 9 -35 9 -9 0
-8 -4 5 -9z"/>
<path d="M7370 5760 c-65 -14 -142 -55 -200 -107 -112 -101 -154 -202 -148
-359 3 -92 7 -107 40 -175 41 -83 122 -173 194 -215 59 -35 164 -64 229 -64
66 0 156 24 217 57 99 54 201 191 227 304 48 206 -58 423 -253 520 -73 36 -91
40 -171 44 -50 2 -110 0 -135 -5z m262 -83 c94 -42 195 -148 202 -214 2 -15 4
-32 5 -36 0 -5 5 -6 10 -3 12 8 25 -134 17 -187 -11 -71 -72 -182 -131 -236
-64 -58 -169 -101 -247 -101 -65 0 -171 31 -229 68 -74 48 -145 146 -173 241
-20 67 -20 120 -2 188 41 154 140 262 275 300 72 20 204 11 273 -20z"/>
<path d="M7340 5655 c-76 -32 -164 -113 -198 -183 -24 -51 -27 -68 -27 -162 0
-101 1 -107 34 -165 54 -96 86 -130 153 -164 120 -58 225 -64 330 -17 59 25
158 100 158 118 0 6 12 36 27 67 23 46 28 72 31 153 3 65 1 98 -6 98 -6 0 -14
17 -18 38 -9 53 -39 98 -97 144 -89 70 -135 86 -266 93 -52 3 -78 -2 -121 -20z
m81 -38 c5 -34 3 -40 -18 -48 -39 -15 -43 -11 -43 34 0 50 6 59 34 55 15 -2
22 -13 27 -41z m119 34 c0 -5 -3 -23 -6 -40 -8 -38 -31 -41 -44 -5 -17 43 -13
54 20 54 17 0 30 -4 30 -9z m74 -33 c10 -37 7 -58 -8 -58 -7 0 -19 -6 -25 -14
-10 -12 -8 -17 11 -27 69 -35 120 -130 119 -222 0 -89 -68 -185 -146 -206 -95
-26 -204 -5 -244 47 -14 19 -34 44 -44 55 l-18 22 11 -23 c6 -13 9 -28 7 -35
-9 -27 -30 73 -31 143 0 58 5 84 22 117 12 23 22 50 23 60 0 12 2 13 6 5 4
-10 12 -7 32 12 15 15 52 35 82 45 45 16 62 18 101 9 57 -13 78 2 78 56 0 40
14 48 24 14z m-283 -85 c-8 -7 -20 -13 -25 -12 -6 0 -5 3 2 6 18 7 15 24 -10
50 -17 18 -19 26 -10 35 9 9 12 8 13 -7 0 -17 2 -16 11 5 10 24 11 23 22 -20
10 -38 10 -47 -3 -57z m-60 3 c8 -17 8 -36 1 -63 -9 -35 -10 -36 -11 -9 -1 24
-3 27 -16 16 -8 -7 -12 -17 -9 -22 4 -6 -6 -2 -20 7 -34 23 -50 51 -33 58 8 3
19 -4 25 -14 16 -25 32 -24 32 1 0 11 -4 20 -10 20 -5 0 -10 7 -10 15 0 24 39
17 51 -9z m507 -34 c10 -14 9 -18 -7 -24 -10 -3 -22 -11 -26 -17 -3 -6 -14
-11 -24 -11 -22 0 -35 48 -18 68 13 17 57 7 75 -16z m-608 -63 c0 -21 20 -25
38 -7 9 9 12 7 12 -11 0 -12 -5 -31 -10 -42 -10 -18 -12 -18 -35 -3 -28 18
-39 45 -30 74 8 24 25 17 25 -11z m653 -66 c7 -34 2 -39 -45 -46 -37 -6 -38
-5 -38 24 0 21 6 32 23 39 39 16 54 11 60 -17z m-586 -25 c-3 -7 -5 -2 -5 12
0 14 2 19 5 13 2 -7 2 -19 0 -25z m-87 -25 c0 -22 21 -25 42 -7 19 18 20 18
16 -11 -2 -19 -12 -34 -30 -45 -36 -19 -45 -9 -54 60 -6 51 -5 54 10 35 8 -11
16 -25 16 -32z m680 -73 c0 -5 -9 -19 -19 -29 -11 -11 -16 -23 -13 -26 4 -4
-4 -4 -18 0 -31 9 -39 21 -33 46 4 15 15 19 44 19 22 0 39 -4 39 -10z m-586
-66 c10 -26 8 -29 -30 -43 -38 -14 -53 -6 -54 27 0 27 74 42 84 16z m36 -89
c0 -23 -46 -41 -65 -25 -28 23 -19 30 53 39 6 0 12 -6 12 -14z m476 5 l27 -11
-24 -25 c-22 -23 -24 -24 -30 -6 -4 11 -14 22 -23 25 -9 4 -16 11 -16 17 0 13
31 13 66 0z m-376 -59 c0 -41 -9 -49 -46 -41 -46 11 -51 16 -20 24 14 3 25 10
25 14 -3 17 2 22 21 22 13 0 20 -7 20 -19z m125 9 c24 0 27 -2 13 -10 -9 -6
-19 -28 -23 -50 -5 -30 -11 -40 -26 -40 -16 0 -19 7 -19 40 0 37 -4 43 -32 55
l-33 15 45 -4 c25 -3 59 -5 75 -6z m133 -24 c6 -49 -14 -54 -53 -13 -37 38
-32 47 25 44 20 -2 26 -8 28 -31z"/>
<path d="M7380 5623 c0 -10 5 -25 10 -33 8 -12 10 -9 10 12 0 15 -4 30 -10 33
-5 3 -10 -2 -10 -12z"/>
<path d="M7387 5489 c-49 -26 -87 -88 -94 -154 -7 -70 28 -152 80 -184 54 -33
148 -34 205 -1 75 42 110 129 86 210 -37 125 -169 186 -277 129z m121 -28
c-15 -5 -12 -9 12 -20 35 -15 70 -75 70 -121 0 -87 -63 -139 -168 -140 -62 0
-70 11 -48 65 9 20 19 73 22 118 4 45 12 86 17 92 5 5 33 10 61 11 28 1 43 -2
34 -5z"/>
<path d="M7467 5318 c1 -29 2 -54 2 -56 1 -1 10 2 22 8 29 16 24 94 -6 98 -18
2 -20 -2 -18 -50z"/>
<path d="M7730 5501 c0 -6 4 -13 10 -16 6 -3 7 1 4 9 -7 18 -14 21 -14 7z"/>
<path d="M7774 5366 c-18 -14 -18 -15 4 -13 12 1 22 7 22 14 0 16 -2 16 -26
-1z"/>
<path d="M7777 5243 c-12 -11 -8 -23 8 -23 8 0 15 7 15 15 0 16 -12 20 -23 8z"/>
<path d="M7308 6233 c6 -2 18 -2 25 0 6 3 1 5 -13 5 -14 0 -19 -2 -12 -5z"/>
<path d="M7448 6203 c6 -2 18 -2 25 0 6 3 1 5 -13 5 -14 0 -19 -2 -12 -5z"/>
<path d="M5468 5652 c8 -5 13 -11 12 -13 -1 -2 3 -17 9 -32 14 -35 14 -57 1
-57 -5 0 -10 15 -11 33 0 26 -2 28 -8 12 -7 -17 -9 -16 -15 13 -9 37 -26 33
-26 -6 0 -40 29 -145 44 -160 9 -9 19 -10 39 -3 24 9 27 16 26 53 0 63 -39
162 -64 166 -15 2 -16 1 -7 -6z"/>
<path d="M4917 5539 c4 -42 3 -60 -4 -56 -7 5 -7 -10 1 -46 9 -43 15 -53 35
-55 13 -2 28 2 32 10 11 16 10 103 -2 143 -6 21 -7 11 -3 -32 3 -35 2 -63 -1
-63 -16 0 -32 28 -33 55 -1 42 -13 94 -23 101 -5 3 -6 -22 -2 -57z"/>
<path d="M5879 5549 c-12 -24 3 -75 48 -155 18 -33 31 -44 49 -44 39 0 48 33
23 82 -60 117 -99 156 -120 117z"/>
<path d="M5074 5325 c-8 -31 3 -45 82 -101 64 -46 85 -52 101 -31 18 22 23 48
10 45 -7 -2 -44 20 -82 48 -90 66 -103 70 -111 39z"/>
<path d="M5892 5318 c-7 -7 -12 -20 -12 -30 0 -21 109 -138 128 -138 6 0 19
11 28 25 16 24 15 27 -9 64 -29 43 -86 91 -108 91 -8 0 -20 -5 -27 -12z"/>
<path d="M4344 5296 c-3 -14 -3 -33 0 -41 14 -37 157 -64 177 -34 28 43 -25
84 -119 96 -49 5 -51 5 -58 -21z"/>
<path d="M5534 5267 c-105 -55 -110 -60 -99 -93 13 -37 41 -41 97 -13 97 48
130 93 96 127 -17 17 -26 15 -94 -21z"/>
<path d="M4720 5216 c0 -16 57 -53 122 -81 36 -14 39 -14 59 6 11 11 17 24 13
27 -3 4 -9 1 -11 -5 -5 -14 -49 -18 -55 -5 -1 4 -31 22 -65 40 -49 26 -63 30
-63 18z"/>
<path d="M6362 5170 c-12 -16 -22 -37 -22 -46 0 -10 -3 -14 -7 -11 -11 11 -32
-28 -39 -73 -8 -48 10 -72 46 -63 32 8 80 157 65 202 -9 28 -17 26 -43 -9z"/>
<path d="M4251 5057 c-7 -36 -19 -74 -26 -83 -7 -10 -11 -23 -9 -29 2 -5 -7
-11 -22 -11 -33 -2 -38 -8 -30 -38 8 -34 43 -43 68 -19 25 25 56 192 42 224
-8 18 -12 11 -23 -44z"/>
<path d="M3818 5065 c-14 -32 3 -52 75 -88 84 -41 103 -43 122 -14 25 38 7 60
-79 96 -90 37 -103 38 -118 6z"/>
<path d="M5280 5019 c0 -29 -60 -85 -71 -67 -6 9 -9 4 -9 -13 0 -15 7 -33 16
-40 38 -31 105 55 90 116 -8 30 -26 33 -26 4z"/>
<path d="M6154 4985 c-16 -14 -35 -25 -42 -25 -7 0 -10 -5 -6 -12 4 -7 3 -8
-5 -4 -16 10 -52 -3 -45 -17 3 -7 -2 -3 -10 7 -12 15 -16 16 -16 5 0 -43 62
-51 130 -16 38 18 46 27 48 55 4 40 -13 42 -54 7z"/>
<path d="M3600 4973 c-50 -19 -65 -67 -30 -98 27 -24 70 -11 88 28 12 24 11
32 -2 53 -16 24 -28 27 -56 17z"/>
<path d="M6650 4916 c0 -9 -13 -28 -28 -43 -16 -16 -37 -43 -47 -60 -11 -18
-23 -33 -28 -33 -4 0 -5 -4 -2 -10 15 -25 47 -8 80 44 39 61 52 101 36 110 -6
4 -11 0 -11 -8z"/>
<path d="M3580 4757 c28 -22 21 -53 -16 -70 -25 -12 -34 -23 -34 -41 0 -39 11
-56 36 -56 19 0 26 8 39 52 21 70 19 105 -4 118 -27 14 -40 12 -21 -3z"/>
<path d="M4076 4714 c-10 -14 -49 -39 -87 -57 -38 -17 -69 -34 -69 -38 0 -3 7
-12 15 -19 18 -15 92 8 148 46 32 22 38 30 35 56 -4 40 -18 44 -42 12z"/>
<path d="M6377 4683 c15 -34 28 -61 30 -59 7 6 -20 77 -37 98 -16 18 -14 11 7
-39z"/>
<path d="M3786 4711 c-16 -17 -17 -28 -7 -110 15 -123 24 -143 59 -139 26 3
27 6 30 66 4 80 -13 173 -35 190 -22 16 -27 15 -47 -7z"/>
<path d="M6305 4685 c18 -76 62 -189 77 -199 24 -14 62 20 53 49 -3 11 -8 31
-11 45 -9 41 -17 38 -11 -3 5 -32 3 -38 -9 -33 -9 3 -19 6 -24 6 -4 0 -21 33
-36 73 -30 79 -50 110 -39 62z"/>
<path d="M3627 4533 c-15 -14 -6 -25 10 -12 15 12 16 12 10 -3 -4 -12 -2 -15
9 -11 13 5 15 -4 12 -53 -3 -51 -6 -59 -23 -59 -14 0 -22 9 -26 30 -4 19 -7 2
-8 -48 -1 -98 8 -117 56 -117 l36 0 -5 120 c-4 97 -9 124 -23 140 -18 20 -36
25 -48 13z"/>
<path d="M6668 4483 c-3 -11 -1 -29 5 -39 17 -31 99 -124 119 -135 22 -12 58
5 58 27 0 8 -4 13 -9 9 -6 -3 -15 5 -22 17 -22 42 -92 118 -102 111 -6 -3 -7
-1 -3 5 3 6 2 13 -4 17 -6 3 -13 -2 -17 -11 -6 -16 -7 -16 -13 1 -6 18 -7 18
-12 -2z"/>
<path d="M2100 5620 c-8 -5 -10 -10 -5 -10 6 0 17 5 25 10 8 5 11 10 5 10 -5
0 -17 -5 -25 -10z"/>
<path d="M2328 5569 c-19 -11 -23 -45 -8 -69 7 -11 15 -12 37 -4 31 10 42 46
23 70 -14 16 -28 17 -52 3z"/>
<path d="M2181 5515 c-18 -8 -46 -15 -62 -15 -27 0 -29 -2 -19 -20 8 -15 15
-18 28 -10 9 5 44 21 77 34 42 18 52 25 35 25 -14 0 -40 -6 -59 -14z"/>
<path d="M2198 5462 c-76 -31 -83 -36 -75 -56 5 -12 13 -12 58 5 77 30 111 49
107 61 -7 20 -21 18 -90 -10z"/>
<path d="M2225 5375 c-38 -13 -63 -24 -54 -24 17 -1 139 38 139 45 0 7 -12 4
-85 -21z"/>
<path d="M2291 5220 c-30 -11 -59 -24 -65 -30 -17 -17 1 -22 31 -7 15 8 49 20
76 27 26 7 47 17 47 21 0 14 -30 10 -89 -11z"/>
<path d="M2364 5130 c-80 -28 -134 -70 -89 -70 21 0 155 61 155 71 0 16 -16
16 -66 -1z"/>
<path d="M2347 5036 c-32 -12 -55 -25 -52 -28 7 -7 101 23 132 41 33 19 -16
11 -80 -13z"/>
<path d="M2546 5015 c-11 -12 -13 -22 -5 -44 10 -28 12 -28 50 -19 30 8 39 15
39 32 0 43 -52 62 -84 31z"/>
<path d="M2430 4886 c-42 -15 -66 -29 -68 -40 -4 -20 3 -19 95 19 31 12 59 28
61 34 5 16 -15 13 -88 -13z"/>
<path d="M2479 4812 c-55 -20 -97 -47 -87 -57 3 -3 19 0 35 8 15 8 51 20 80
27 35 9 50 17 46 27 -7 17 -18 16 -74 -5z"/>
<path d="M2497 4728 c-52 -18 -78 -40 -65 -53 10 -10 158 47 158 61 0 19 -23
17 -93 -8z"/>
<path d="M2540 4659 c-30 -12 -63 -23 -72 -26 -20 -6 -24 -23 -6 -23 23 0 148
52 148 61 0 12 -7 11 -70 -12z"/>
<path d="M2600 4574 c-87 -29 -140 -73 -81 -67 34 4 133 47 135 58 1 11 -31
16 -54 9z"/>
<path d="M2605 4494 c-27 -13 -56 -24 -62 -24 -7 0 -13 -4 -13 -10 0 -5 4 -10
9 -10 19 0 131 53 131 61 0 13 -9 10 -65 -17z"/>
<path d="M2788 4479 c-17 -9 -25 -58 -13 -71 3 -3 20 -2 38 1 38 8 50 47 21
68 -21 15 -24 15 -46 2z"/>
<path d="M2671 4326 c-59 -20 -92 -46 -59 -46 25 0 131 45 136 58 5 16 -1 15
-77 -12z"/>
<path d="M2698 4253 c-61 -23 -88 -43 -56 -43 30 0 148 45 148 57 0 17 -12 15
-92 -14z"/>
<path d="M2830 5435 c0 -5 5 -17 10 -25 5 -8 10 -10 10 -5 0 6 -5 17 -10 25
-5 8 -10 11 -10 5z"/>
<path d="M7865 4490 c28 -12 45 -12 45 0 0 6 -15 10 -32 9 -28 0 -30 -2 -13
-9z"/>
<path d="M4943 4433 c9 -2 25 -2 35 0 9 3 1 5 -18 5 -19 0 -27 -2 -17 -5z"/>
<path d="M5128 4433 c7 -3 16 -2 19 1 4 3 -2 6 -13 5 -11 0 -14 -3 -6 -6z"/>
<path d="M4348 3945 c-82 -45 -90 -178 -13 -229 29 -19 97 -23 135 -8 39 15
79 61 86 99 9 45 -21 110 -61 134 -36 23 -109 24 -147 4z"/>
<path d="M3437 3843 c-14 -4 -18 -11 -14 -31 3 -15 14 -71 23 -124 l17 -98 31
0 c17 0 54 11 82 24 66 31 92 79 75 137 -7 21 -22 51 -35 66 -21 24 -31 27
-92 29 -38 2 -77 0 -87 -3z"/>
<path d="M4608 3233 c6 -2 18 -2 25 0 6 3 1 5 -13 5 -14 0 -19 -2 -12 -5z"/>
<path d="M5213 3093 c9 -2 23 -2 30 0 6 3 -1 5 -18 5 -16 0 -22 -2 -12 -5z"/>
<path d="M5298 3093 c12 -2 32 -2 45 0 12 2 2 4 -23 4 -25 0 -35 -2 -22 -4z"/>
<path d="M4940 3040 c0 -12 37 -12 65 0 15 7 10 9 -22 9 -24 1 -43 -3 -43 -9z"/>
<path d="M5373 3033 c15 -2 39 -2 55 0 15 2 2 4 -28 4 -30 0 -43 -2 -27 -4z"/>
<path d="M6131 3138 c3 -39 14 -57 29 -48 10 6 11 10 3 10 -7 0 -13 7 -13 15
0 10 6 12 18 8 16 -6 16 -6 0 10 -20 20 -38 22 -37 5z"/>
<path d="M6084 3107 c-12 -12 -46 -35 -75 -50 l-54 -28 -17 21 c-11 13 -19 17
-23 10 -4 -6 -13 -9 -21 -6 -9 3 -14 -1 -14 -13 0 -22 26 -22 42 0 7 10 8 2 4
-27 l-6 -42 48 6 c55 6 108 30 140 65 19 20 23 32 17 56 -8 37 -13 38 -41 8z"/>
<path d="M6205 3100 c-3 -5 -1 -10 4 -10 6 0 11 5 11 10 0 6 -2 10 -4 10 -3 0
-8 -4 -11 -10z"/>
<path d="M4635 2930 c3 -5 8 -10 11 -10 2 0 4 5 4 10 0 6 -5 10 -11 10 -5 0
-7 -4 -4 -10z"/>
<path d="M4674 2922 c-7 -4 1 -14 23 -25 19 -9 31 -12 27 -6 -4 8 1 9 17 4 23
-7 23 -7 4 8 -10 8 -26 12 -34 9 -9 -3 -12 -1 -7 6 8 13 -12 16 -30 4z"/>
<path d="M4591 2905 c14 -14 21 -15 35 -6 11 7 13 10 4 8 -8 -2 -24 0 -35 6
-19 9 -19 8 -4 -8z"/>
<path d="M4646 2715 c4 -8 12 -15 20 -15 20 0 17 7 -6 20 -16 9 -18 8 -14 -5z"/>
<path d="M5278 2683 c-31 -35 -78 -155 -76 -193 3 -36 8 -39 65 -32 17 3 71
117 79 169 6 38 4 49 -12 60 -24 17 -38 16 -56 -4z m42 2 c0 -14 -32 -65 -40
-65 -16 0 -12 32 7 52 15 17 33 24 33 13z m-50 -90 c-7 -9 -15 -13 -17 -11 -7
7 7 26 19 26 6 0 6 -6 -2 -15z"/>
<path d="M4646 2627 c3 -10 9 -15 12 -12 3 3 0 11 -7 18 -10 9 -11 8 -5 -6z"/>
<path d="M4685 2629 c-4 -6 -5 -12 -2 -15 2 -3 7 2 10 11 7 17 1 20 -8 4z"/>
<path d="M4900 2628 c1 -20 38 -97 72 -151 27 -43 34 -48 62 -45 42 4 47 42
11 80 -14 15 -25 31 -25 37 0 5 -3 11 -7 13 -5 2 -21 20 -37 42 -19 26 -31 34
-36 26 -5 -9 -9 -9 -14 -1 -10 15 -26 14 -26 -1z"/>
<path d="M4706 2605 c-9 -26 -7 -32 5 -12 6 10 9 21 6 23 -2 3 -7 -2 -11 -11z"/>
<path d="M5104 2590 c-12 -4 -24 -16 -28 -26 -4 -10 -4 -15 0 -11 4 4 12 3 18
-1 7 -5 18 -1 29 10 11 12 13 18 5 18 -9 0 -8 4 2 10 18 12 3 12 -26 0z"/>
<path d="M4892 2570 c0 -14 2 -19 5 -12 2 6 2 18 0 25 -3 6 -5 1 -5 -13z"/>
<path d="M5175 2573 c-7 -20 -6 -23 5 -23 5 0 14 8 19 18 7 14 6 19 -4 19 -8
0 -17 -7 -20 -14z"/>
<path d="M4808 2568 c5 -5 16 -8 23 -6 8 3 3 7 -10 11 -17 4 -21 3 -13 -5z"/>
<path d="M4710 2556 c0 -2 9 -6 20 -9 11 -3 18 -1 14 4 -5 9 -34 13 -34 5z"/>
<path d="M5086 2517 c3 -10 9 -15 12 -12 3 3 0 11 -7 18 -10 9 -11 8 -5 -6z"/>
<path d="M5168 2393 c7 -3 16 -2 19 1 4 3 -2 6 -13 5 -11 0 -14 -3 -6 -6z"/>
<path d="M3958 3093 c7 -3 16 -2 19 1 4 3 -2 6 -13 5 -11 0 -14 -3 -6 -6z"/>
<path d="M3635 3070 c4 -6 11 -8 16 -5 14 9 11 15 -7 15 -8 0 -12 -5 -9 -10z"/>
<path d="M4298 2823 c7 -3 16 -2 19 1 4 3 -2 6 -13 5 -11 0 -14 -3 -6 -6z"/>
<path d="M4105 1900 c3 -5 11 -10 16 -10 6 0 7 5 4 10 -3 6 -11 10 -16 10 -6
0 -7 -4 -4 -10z"/>
<path d="M5160 1751 c0 -15 56 -51 78 -51 12 0 24 5 27 10 4 6 -6 10 -23 10
-16 0 -39 9 -52 20 -26 23 -30 24 -30 11z"/>
<path d="M7187 7990 c-103 -26 -208 -114 -253 -213 -26 -55 -29 -73 -29 -162
0 -92 3 -105 32 -166 39 -80 120 -159 200 -197 52 -24 70 -27 163 -27 99 0
108 2 169 33 78 41 141 105 178 180 26 52 28 66 28 172 0 107 -2 119 -29 174
-39 79 -102 140 -184 179 -57 27 -80 32 -152 34 -47 1 -102 -2 -123 -7z m215
-78 c90 -32 178 -130 177 -197 0 -15 -5 -11 -19 15 -28 53 -109 125 -162 145
-70 26 -178 17 -241 -19 -130 -77 -182 -235 -123 -378 27 -66 22 -74 -13 -23
-54 80 -63 154 -31 259 52 166 244 259 412 198z m-39 -136 c39 -17 92 -71 106
-109 26 -68 -2 -155 -65 -203 -33 -26 -46 -29 -109 -29 -62 0 -76 3 -107 27
-135 103 -64 325 105 327 21 1 52 -5 70 -13z m-336 -173 c-3 -10 -5 -4 -5 12
0 17 2 24 5 18 2 -7 2 -21 0 -30z m532 -113 c-72 -167 -323 -213 -453 -84 -33
33 -56 76 -62 113 -4 23 -3 24 7 7 15 -24 47 -63 79 -92 65 -62 173 -81 258
-44 68 29 138 104 153 164 6 25 15 43 20 40 5 -3 10 5 11 18 1 13 3 2 5 -24 3
-33 -3 -62 -18 -98z"/>
<path d="M2621 2575 c-24 -8 -46 -17 -49 -19 -2 -3 13 -54 34 -115 44 -124 40
-122 131 -79 76 35 92 125 34 190 -32 35 -86 44 -150 23z m111 -52 c23 -21 24
-89 1 -115 -29 -32 -58 -23 -76 25 -24 66 -29 86 -22 97 10 16 77 12 97 -7z"/>
<path d="M7646 2559 c-2 -8 -16 -50 -30 -94 -31 -96 -33 -120 -7 -122 13 -1
21 8 27 30 7 21 18 33 37 38 15 4 25 4 22 -1 -10 -17 35 -118 55 -123 11 -3
20 -1 20 4 0 5 -6 9 -14 9 -8 0 -17 7 -20 16 -10 26 -7 29 9 8 19 -25 19 -7 0
46 -22 61 -20 66 30 96 25 14 45 28 45 30 0 2 -8 8 -19 13 -14 8 -31 3 -76
-25 -32 -19 -60 -33 -62 -30 -2 2 3 23 11 47 17 47 20 66 9 56 -3 -4 -12 -2
-19 4 -10 8 -15 8 -18 -2z"/>
</g>
</svg>
